STARTFONT 2.1
COMMENT
COMMENT Converted from OpenType font "Q:\font stuff\winfont\ReversionBroken.ttf" by "otf2bdf 3.0".
COMMENT
FONT -FreeType-ReversionBroken-Medium-R-Normal--34-340-72-72-P-318-ISO10646-1
SIZE 34 72 72
FONTBOUNDINGBOX 81 52 -21 -14
STARTPROPERTIES 19
FOUNDRY "FreeType"
FAMILY_NAME "ReversionBroken"
WEIGHT_NAME "Medium"
SLANT "R"
SETWIDTH_NAME "Normal"
ADD_STYLE_NAME ""
PIXEL_SIZE 31
POINT_SIZE 340
RESOLUTION_X 72
RESOLUTION_Y 72
SPACING "P"
AVERAGE_WIDTH 318
CHARSET_REGISTRY "ISO10646"
CHARSET_ENCODING "1"
FONT_ASCENT 38
FONT_DESCENT 12
COPYRIGHT "Copyright 2002 YouWorkForThem.  All Rights Reserved. http://www.youworkforthem.com.  YWFT Administration Contact: info@youworkforthem.com"
_OTF_FONTFILE "Q:\font stuff\winfont\ReversionBroken.ttf"
_OTF_PSNAME "ReversionBroken"
ENDPROPERTIES
CHARS 236
STARTCHAR 0020
ENCODING 32
SWIDTH 294 0
DWIDTH 10 0
BBX 0 0 0 0
BITMAP
ENDCHAR
STARTCHAR 0021
ENCODING 33
SWIDTH 205 0
DWIDTH 7 0
BBX 3 24 2 0
BITMAP
E0
E0
E0
E0
E0
E0
E0
E0
E0
E0
E0
E0
E0
E0
E0
E0
E0
00
00
00
00
E0
E0
E0
ENDCHAR
STARTCHAR 0022
ENCODING 34
SWIDTH 411 0
DWIDTH 14 0
BBX 10 7 2 17
BITMAP
E1C0
E1C0
E1C0
E1C0
E1C0
E1C0
E1C0
ENDCHAR
STARTCHAR 0023
ENCODING 35
SWIDTH 705 0
DWIDTH 24 0
BBX 19 17 2 3
BITMAP
1E0F80
1E0F80
1E0F80
FFFFE0
FFFFE0
FFFFE0
1E0F80
1E0F80
1E0F80
1E0F80
FFFFE0
FFFFE0
FFFFE0
1E0F80
1E0F80
1E0F80
1E0F80
ENDCHAR
STARTCHAR 0024
ENCODING 36
SWIDTH 1411 0
DWIDTH 48 0
BBX 44 30 2 -3
BITMAP
00000F000000
00000F000000
00000F000000
EFFFEFFFFFF0
EFFFEFFFFFF0
EFFFEFFFFFF0
EFFFEFFFFFF0
E00000000000
E00000000000
E00000000000
E00000000000
E00000000000
E00000000000
EFFFFFFFFFF0
EFFFFFFFFFF0
EFFFFFFFFFF0
EFFFFFFFFFF0
0000000000F0
0000000000F0
0000000000F0
0000000000F0
0000000000F0
0000000000F0
0000000000F0
FFFFEFFFFFF0
FFFFEFFFFFF0
FFFFEFFFFFF0
00000F000000
00000F000000
00000F000000
ENDCHAR
STARTCHAR 0025
ENCODING 37
SWIDTH 1205 0
DWIDTH 41 0
BBX 37 24 2 0
BITMAP
EFB8000038
EFB8000038
EFB8000038
EFB8000038
E038000038
E038000038
E038000038
EFB877FFB8
EFB877FFB8
EFB877FFB8
0000700000
0000700000
0000700000
0000700000
EFFF71EFB8
EFFF71EFB8
EFFF71EFB8
E00001E038
E00001E038
E00001E038
E00001E038
E00001EFB8
E00001EFB8
E00001EFB8
ENDCHAR
STARTCHAR 0026
ENCODING 38
SWIDTH 1411 0
DWIDTH 48 0
BBX 44 24 2 0
BITMAP
EFFFFFFFF000
EFFFFFFFF000
EFFFFFFFF000
E00000000000
E00000000000
E00000000000
E00000000000
E00000000380
E00000000380
E00000000380
EFFFFFFFF3F0
EFFFFFFFF3F0
EFFFFFFFF3F0
E00000000380
E00000000380
E00000000380
E00000000380
E00000000380
E00000000380
E00000000380
E00000000380
EFFFFFFFF380
EFFFFFFFF380
EFFFFFFFF380
ENDCHAR
STARTCHAR 0027
ENCODING 39
SWIDTH 205 0
DWIDTH 7 0
BBX 3 7 2 17
BITMAP
E0
E0
E0
E0
E0
E0
E0
ENDCHAR
STARTCHAR 0028
ENCODING 40
SWIDTH 500 0
DWIDTH 17 0
BBX 13 24 3 0
BITMAP
1DF8
1DF8
1DF8
FC00
FC00
FC00
E000
E000
E000
E000
E000
E000
E000
E000
E000
E000
E000
E000
FC00
FC00
FC00
1DF8
1DF8
1DF8
ENDCHAR
STARTCHAR 0029
ENCODING 41
SWIDTH 500 0
DWIDTH 17 0
BBX 14 24 2 0
BITMAP
FCE0
FCE0
FCE0
00FC
00FC
00FC
001C
001C
001C
001C
001C
001C
001C
001C
001C
001C
001C
001C
00FC
00FC
00FC
FCE0
FCE0
FCE0
ENDCHAR
STARTCHAR 002A
ENCODING 42
SWIDTH 411 0
DWIDTH 14 0
BBX 9 10 2 14
BITMAP
1C00
1C00
1C00
0000
E380
E380
E380
1C00
1C00
1C00
ENDCHAR
STARTCHAR 002B
ENCODING 43
SWIDTH 411 0
DWIDTH 14 0
BBX 9 10 2 7
BITMAP
1C00
1C00
1C00
FF80
FF80
FF80
1C00
1C00
1C00
1C00
ENDCHAR
STARTCHAR 002C
ENCODING 44
SWIDTH 205 0
DWIDTH 7 0
BBX 3 6 2 -3
BITMAP
E0
E0
E0
E0
E0
E0
ENDCHAR
STARTCHAR 002D
ENCODING 45
SWIDTH 411 0
DWIDTH 14 0
BBX 10 4 2 10
BITMAP
FFC0
FFC0
FFC0
FFC0
ENDCHAR
STARTCHAR 002E
ENCODING 46
SWIDTH 205 0
DWIDTH 7 0
BBX 3 3 2 0
BITMAP
E0
E0
E0
ENDCHAR
STARTCHAR 002F
ENCODING 47
SWIDTH 1000 0
DWIDTH 34 0
BBX 31 24 2 0
BITMAP
0000000E
0000000E
0000000E
0000000E
0000000E
0000000E
0000000E
0000000E
0000000E
0000000E
EFFFFFCE
EFFFFFCE
EFFFFFCE
E0000000
E0000000
E0000000
E0000000
E0000000
E0000000
E0000000
E0000000
E0000000
E0000000
E0000000
ENDCHAR
STARTCHAR 0030
ENCODING 48
SWIDTH 1411 0
DWIDTH 48 0
BBX 44 24 2 0
BITMAP
EFFFFFFFFF70
EFFFFFFFFF70
EFFFFFFFFF70
E00000000070
E00000000070
E00000000070
E00000000070
E00000000070
E00000000070
E00000000070
E00000000070
E00000000070
E00000000070
E00000000070
E00000000070
E00000000070
E00000000070
E00000000070
E00000000070
E00000000070
E00000000070
EFFFFFFFFF70
EFFFFFFFFF70
EFFFFFFFFF70
ENDCHAR
STARTCHAR 0031
ENCODING 49
SWIDTH 1000 0
DWIDTH 34 0
BBX 30 24 2 0
BITMAP
FFFB8000
FFFB8000
FFFB8000
00038000
00038000
00038000
00038000
00038000
00038000
00038000
00038000
00038000
00038000
00038000
00038000
00038000
00038000
00038000
00038000
00038000
00038000
FFFBFFFC
FFFBFFFC
FFFBFFFC
ENDCHAR
STARTCHAR 0032
ENCODING 50
SWIDTH 1411 0
DWIDTH 48 0
BBX 44 24 2 0
BITMAP
FFFFFFFFFF70
FFFFFFFFFF70
FFFFFFFFFF70
000000000070
000000000070
000000000070
000000000070
000000000070
000000000070
000000000070
EFFFFFFFFF70
EFFFFFFFFF70
EFFFFFFFFF70
E00000000000
E00000000000
E00000000000
E00000000000
E00000000000
E00000000000
E00000000000
E00000000000
EFFFFFFFFFF0
EFFFFFFFFFF0
EFFFFFFFFFF0
ENDCHAR
STARTCHAR 0033
ENCODING 51
SWIDTH 1294 0
DWIDTH 44 0
BBX 41 24 2 0
BITMAP
FFFFFFFFF380
FFFFFFFFF380
FFFFFFFFF380
000000000380
000000000380
000000000380
000000000380
000000000380
000000000380
000000000380
FFFFFFFFF380
FFFFFFFFF380
FFFFFFFFF380
000000000380
000000000380
000000000380
000000000380
000000000380
000000000380
000000000380
000000000380
FFFFFFFFF380
FFFFFFFFF380
FFFFFFFFF380
ENDCHAR
STARTCHAR 0034
ENCODING 52
SWIDTH 1294 0
DWIDTH 44 0
BBX 41 24 2 0
BITMAP
E00000000380
E00000000380
E00000000380
E00000000380
E00000000380
E00000000380
E00000000380
E00000000380
E00000000380
E00000000380
EFFFFFFFF380
EFFFFFFFF380
EFFFFFFFF380
000000000380
000000000380
000000000380
000000000380
000000000380
000000000380
000000000380
000000000380
000000000380
000000000380
000000000380
ENDCHAR
STARTCHAR 0035
ENCODING 53
SWIDTH 1411 0
DWIDTH 48 0
BBX 44 24 2 0
BITMAP
EFFFFFFFFFF0
EFFFFFFFFFF0
EFFFFFFFFFF0
E00000000000
E00000000000
E00000000000
E00000000000
E00000000000
E00000000000
E00000000000
EFFFFFFFFF70
EFFFFFFFFF70
EFFFFFFFFF70
000000000070
000000000070
000000000070
000000000070
000000000070
000000000070
000000000070
000000000070
FFFFFFFFFF70
FFFFFFFFFF70
FFFFFFFFFF70
ENDCHAR
STARTCHAR 0036
ENCODING 54
SWIDTH 1411 0
DWIDTH 48 0
BBX 44 24 2 0
BITMAP
EFFFFFFFFFF0
EFFFFFFFFFF0
EFFFFFFFFFF0
E00000000000
E00000000000
E00000000000
E00000000000
E00000000000
E00000000000
E00000000000
EFFFFFFFFF70
EFFFFFFFFF70
EFFFFFFFFF70
E00000000070
E00000000070
E00000000070
E00000000070
E00000000070
E00000000070
E00000000070
E00000000070
EFFFFFFFFF70
EFFFFFFFFF70
EFFFFFFFFF70
ENDCHAR
STARTCHAR 0037
ENCODING 55
SWIDTH 1205 0
DWIDTH 41 0
BBX 37 24 2 0
BITMAP
FFFFFFFFB8
FFFFFFFFB8
FFFFFFFFB8
0000000038
0000000038
0000000038
0000000038
0000000038
0000000038
0000000038
0000000038
0000000038
0000000038
0000000038
0000000038
0000000038
0000000038
0000000038
0000000038
0000000038
0000000038
0000000038
0000000038
0000000038
ENDCHAR
STARTCHAR 0038
ENCODING 56
SWIDTH 1411 0
DWIDTH 48 0
BBX 44 24 2 0
BITMAP
EFFFFFFFFF70
EFFFFFFFFF70
EFFFFFFFFF70
E00000000070
E00000000070
E00000000070
E00000000070
E00000000070
E00000000070
E00000000070
EFFFFFFFFF70
EFFFFFFFFF70
EFFFFFFFFF70
E00000000070
E00000000070
E00000000070
E00000000070
E00000000070
E00000000070
E00000000070
E00000000070
EFFFFFFFFF70
EFFFFFFFFF70
EFFFFFFFFF70
ENDCHAR
STARTCHAR 0039
ENCODING 57
SWIDTH 1411 0
DWIDTH 48 0
BBX 44 24 2 0
BITMAP
EFFFFFFFFF70
EFFFFFFFFF70
EFFFFFFFFF70
E00000000070
E00000000070
E00000000070
E00000000070
E00000000070
E00000000070
E00000000070
EFFFFFFFFF70
EFFFFFFFFF70
EFFFFFFFFF70
000000000070
000000000070
000000000070
000000000070
000000000070
000000000070
000000000070
000000000070
FFFFFFFFFF70
FFFFFFFFFF70
FFFFFFFFFF70
ENDCHAR
STARTCHAR 003A
ENCODING 58
SWIDTH 205 0
DWIDTH 7 0
BBX 3 14 2 0
BITMAP
E0
E0
E0
00
00
00
00
00
00
00
00
E0
E0
E0
ENDCHAR
STARTCHAR 003B
ENCODING 59
SWIDTH 205 0
DWIDTH 7 0
BBX 3 17 2 -3
BITMAP
E0
E0
E0
00
00
00
00
00
00
00
00
E0
E0
E0
E0
E0
E0
ENDCHAR
STARTCHAR 003C
ENCODING 60
SWIDTH 500 0
DWIDTH 17 0
BBX 14 17 2 3
BITMAP
001C
001C
001C
FFDC
FFDC
FFDC
E000
E000
E000
E000
E000
FFDC
FFDC
FFDC
001C
001C
001C
ENDCHAR
STARTCHAR 003D
ENCODING 61
SWIDTH 588 0
DWIDTH 20 0
BBX 17 10 2 7
BITMAP
FFFF80
FFFF80
FFFF80
000000
000000
000000
000000
FFFF80
FFFF80
FFFF80
ENDCHAR
STARTCHAR 003E
ENCODING 62
SWIDTH 500 0
DWIDTH 17 0
BBX 14 17 2 3
BITMAP
E000
E000
E000
EFFC
EFFC
EFFC
001C
001C
001C
001C
001C
EFFC
EFFC
EFFC
E000
E000
E000
ENDCHAR
STARTCHAR 003F
ENCODING 63
SWIDTH 1205 0
DWIDTH 41 0
BBX 37 24 2 0
BITMAP
FFFFFFFFB8
FFFFFFFFB8
FFFFFFFFB8
0000000038
0000000038
0000000038
0000000038
0000000038
0000000038
0000000038
0003FFFFB8
0003FFFFB8
0003FFFFB8
0003800000
0003800000
0003800000
0000000000
0000000000
0000000000
0000000000
0000000000
0003800000
0003800000
0003800000
ENDCHAR
STARTCHAR 0040
ENCODING 64
SWIDTH 1411 0
DWIDTH 48 0
BBX 44 24 2 0
BITMAP
EFFFFFFFFF70
EFFFFFFFFF70
EFFFFFFFFF70
E00000000070
E00000000070
E00000000070
E00000000070
E1DFFFFFFF70
E1DFFFFFFF70
E1DFFFFFFF70
E1C000000070
E1C000000070
E1C000000070
E1C000000070
E1DFFFFFFF70
E1DFFFFFFF70
E1DFFFFFFF70
E00000000000
E00000000000
E00000000000
E00000000000
EFFFFFFFFFF0
EFFFFFFFFFF0
EFFFFFFFFFF0
ENDCHAR
STARTCHAR 0041
ENCODING 65
SWIDTH 1411 0
DWIDTH 48 0
BBX 44 24 2 0
BITMAP
EFFFFFFFFF70
EFFFFFFFFF70
EFFFFFFFFF70
E00000000070
E00000000070
E00000000070
E00000000070
E00000000070
E00000000070
E00000000070
E00000000070
E00000000070
E00000000070
E00000000070
EFFFFFFFFF70
EFFFFFFFFF70
EFFFFFFFFF70
E00000000070
E00000000070
E00000000070
E00000000070
E00000000070
E00000000070
E00000000070
ENDCHAR
STARTCHAR 0042
ENCODING 66
SWIDTH 1411 0
DWIDTH 48 0
BBX 44 24 2 0
BITMAP
EFFFFFFFF380
EFFFFFFFF380
EFFFFFFFF380
E00000000380
E00000000380
E00000000380
E00000000380
E00000000380
E00000000380
E00000000380
EFFFFFFFF3F0
EFFFFFFFF3F0
EFFFFFFFF3F0
E00000000070
E00000000070
E00000000070
E00000000070
E00000000070
E00000000070
E00000000070
E00000000070
EFFFFFFFFF70
EFFFFFFFFF70
EFFFFFFFFF70
ENDCHAR
STARTCHAR 0043
ENCODING 67
SWIDTH 1294 0
DWIDTH 44 0
BBX 41 24 2 0
BITMAP
EFFFFFFFFF80
EFFFFFFFFF80
EFFFFFFFFF80
E00000000000
E00000000000
E00000000000
E00000000000
E00000000000
E00000000000
E00000000000
E00000000000
E00000000000
E00000000000
E00000000000
E00000000000
E00000000000
E00000000000
E00000000000
E00000000000
E00000000000
E00000000000
EFFFFFFFFF80
EFFFFFFFFF80
EFFFFFFFFF80
ENDCHAR
STARTCHAR 0044
ENCODING 68
SWIDTH 1411 0
DWIDTH 48 0
BBX 44 24 2 0
BITMAP
EFFFFFFFF380
EFFFFFFFF380
EFFFFFFFF380
E000000003F0
E000000003F0
E000000003F0
E00000000070
E00000000070
E00000000070
E00000000070
E00000000070
E00000000070
E00000000070
E00000000070
E00000000070
E00000000070
E00000000070
E00000000070
E000000003F0
E000000003F0
E000000003F0
EFFFFFFFF380
EFFFFFFFF380
EFFFFFFFF380
ENDCHAR
STARTCHAR 0045
ENCODING 69
SWIDTH 1294 0
DWIDTH 44 0
BBX 41 24 2 0
BITMAP
EFFFFFFFFF80
EFFFFFFFFF80
EFFFFFFFFF80
E00000000000
E00000000000
E00000000000
E00000000000
E00000000000
E00000000000
E00000000000
EFFFFFFFFF80
EFFFFFFFFF80
EFFFFFFFFF80
E00000000000
E00000000000
E00000000000
E00000000000
E00000000000
E00000000000
E00000000000
E00000000000
EFFFFFFFFF80
EFFFFFFFFF80
EFFFFFFFFF80
ENDCHAR
STARTCHAR 0046
ENCODING 70
SWIDTH 1205 0
DWIDTH 41 0
BBX 37 24 2 0
BITMAP
EFFFFFFFF8
EFFFFFFFF8
EFFFFFFFF8
E000000000
E000000000
E000000000
E000000000
E000000000
E000000000
E000000000
EFFFFFFFF8
EFFFFFFFF8
EFFFFFFFF8
E000000000
E000000000
E000000000
E000000000
E000000000
E000000000
E000000000
E000000000
E000000000
E000000000
E000000000
ENDCHAR
STARTCHAR 0047
ENCODING 71
SWIDTH 1411 0
DWIDTH 48 0
BBX 44 24 2 0
BITMAP
EFFFFFFFFFF0
EFFFFFFFFFF0
EFFFFFFFFFF0
E00000000000
E00000000000
E00000000000
E00000000000
E00000000000
E00000000000
E00000000000
E0000FFFFF70
E0000FFFFF70
E0000FFFFF70
E00000000070
E00000000070
E00000000070
E00000000070
E00000000070
E00000000070
E00000000070
E00000000070
EFFFFFFFFF70
EFFFFFFFFF70
EFFFFFFFFF70
ENDCHAR
STARTCHAR 0048
ENCODING 72
SWIDTH 1411 0
DWIDTH 48 0
BBX 44 24 2 0
BITMAP
E00000000070
E00000000070
E00000000070
E00000000070
E00000000070
E00000000070
E00000000070
E00000000070
E00000000070
E00000000070
EFFFFFFFFF70
EFFFFFFFFF70
EFFFFFFFFF70
E00000000070
E00000000070
E00000000070
E00000000070
E00000000070
E00000000070
E00000000070
E00000000070
E00000000070
E00000000070
E00000000070
ENDCHAR
STARTCHAR 0049
ENCODING 73
SWIDTH 1000 0
DWIDTH 34 0
BBX 30 24 2 0
BITMAP
FFFBFFFC
FFFBFFFC
FFFBFFFC
00038000
00038000
00038000
00038000
00038000
00038000
00038000
00038000
00038000
00038000
00038000
00038000
00038000
00038000
00038000
00038000
00038000
00038000
FFFBFFFC
FFFBFFFC
FFFBFFFC
ENDCHAR
STARTCHAR 004A
ENCODING 74
SWIDTH 1205 0
DWIDTH 41 0
BBX 37 24 2 0
BITMAP
0000001FB8
0000001FB8
0000001FB8
0000000038
0000000038
0000000038
0000000038
0000000038
0000000038
0000000038
0000000038
0000000038
0000000038
0000000038
E000000038
E000000038
E000000038
E000000038
E000000038
E000000038
E000000038
EFFFFFFFB8
EFFFFFFFB8
EFFFFFFFB8
ENDCHAR
STARTCHAR 004B
ENCODING 75
SWIDTH 1294 0
DWIDTH 44 0
BBX 41 24 2 0
BITMAP
E00000001C00
E00000001C00
E00000001C00
E00000001C00
E00000001C00
E00000001C00
E00000001C00
E00000001C00
E00000001C00
E00000001C00
EFFFFFFF9F80
EFFFFFFF9F80
EFFFFFFF9F80
E00000000380
E00000000380
E00000000380
E00000000380
E00000000380
E00000000380
E00000000380
E00000000380
E00000000380
E00000000380
E00000000380
ENDCHAR
STARTCHAR 004C
ENCODING 76
SWIDTH 1205 0
DWIDTH 41 0
BBX 37 24 2 0
BITMAP
E000000000
E000000000
E000000000
E000000000
E000000000
E000000000
E000000000
E000000000
E000000000
E000000000
E000000000
E000000000
E000000000
E000000000
E000000000
E000000000
E000000000
E000000000
E000000000
E000000000
E000000000
EFFFFFFFF8
EFFFFFFFF8
EFFFFFFFF8
ENDCHAR
STARTCHAR 004D
ENCODING 77
SWIDTH 1500 0
DWIDTH 51 0
BBX 48 24 2 0
BITMAP
EFFF700FFFE7
EFFF700FFFE7
EFFF700FFFE7
E000700E0007
E000700E0007
E000700E0007
E000700E0007
E000700E0007
E000700E0007
E000700E0007
E000700E0007
E000700E0007
E000700E0007
E000700E0007
E000700E0007
E000700E0007
E000700E0007
E000700E0007
E000700E0007
E000700E0007
E000700E0007
E00073EE0007
E00073EE0007
E00073EE0007
ENDCHAR
STARTCHAR 004E
ENCODING 78
SWIDTH 1205 0
DWIDTH 41 0
BBX 37 24 2 0
BITMAP
EFFF700038
EFFF700038
EFFF700038
E000700038
E000700038
E000700038
E000700038
E000700038
E000700038
E000700038
E000700038
E000700038
E000700038
E000700038
E000700038
E000700038
E000700038
E000700038
E000700038
E000700038
E000700038
E00077FFB8
E00077FFB8
E00077FFB8
ENDCHAR
STARTCHAR 004F
ENCODING 79
SWIDTH 1411 0
DWIDTH 48 0
BBX 44 24 2 0
BITMAP
EFFFFFFFFF70
EFFFFFFFFF70
EFFFFFFFFF70
E00000000070
E00000000070
E00000000070
E00000000070
E00000000070
E00000000070
E00000000070
E00000000070
E00000000070
E00000000070
E00000000070
E00000000070
E00000000070
E00000000070
E00000000070
E00000000070
E00000000070
E00000000070
EFFFFFFFFF70
EFFFFFFFFF70
EFFFFFFFFF70
ENDCHAR
STARTCHAR 0050
ENCODING 80
SWIDTH 1294 0
DWIDTH 44 0
BBX 41 24 2 0
BITMAP
EFFFFFFFF380
EFFFFFFFF380
EFFFFFFFF380
E00000000380
E00000000380
E00000000380
E00000000380
E00000000380
E00000000380
E00000000380
E00000000380
E00000000380
E00000000380
E00000000380
EFFFFFFFF380
EFFFFFFFF380
EFFFFFFFF380
E00000000000
E00000000000
E00000000000
E00000000000
E00000000000
E00000000000
E00000000000
ENDCHAR
STARTCHAR 0051
ENCODING 81
SWIDTH 1500 0
DWIDTH 51 0
BBX 48 24 2 0
BITMAP
EFFFFFFFFF70
EFFFFFFFFF70
EFFFFFFFFF70
E00000000070
E00000000070
E00000000070
E00000000070
E00000000070
E00000000070
E00000000070
E00000000070
E00000000070
E00000000070
E00000000070
E00000000070
E00000000070
E00000000070
E00000000070
E00000000070
E00000000070
E00000000070
EFFFFFFFFF77
EFFFFFFFFF77
EFFFFFFFFF77
ENDCHAR
STARTCHAR 0052
ENCODING 82
SWIDTH 1411 0
DWIDTH 48 0
BBX 44 24 2 0
BITMAP
EFFFFFFFFF70
EFFFFFFFFF70
EFFFFFFFFF70
E00000000070
E00000000070
E00000000070
E00000000070
E00000000070
E00000000070
E00000000070
E00000000070
E00000000070
E00000000070
E00000000070
EFFFFFFFFF70
EFFFFFFFFF70
EFFFFFFFFF70
E00000003800
E00000003800
E00000003800
E00000003800
E00000003800
E00000003800
E00000003800
ENDCHAR
STARTCHAR 0053
ENCODING 83
SWIDTH 1411 0
DWIDTH 48 0
BBX 44 24 2 0
BITMAP
EFFFFFFFFFF0
EFFFFFFFFFF0
EFFFFFFFFFF0
E00000000000
E00000000000
E00000000000
E00000000000
E00000000000
E00000000000
E00000000000
EFFFFFFFFF70
EFFFFFFFFF70
EFFFFFFFFF70
000000000070
000000000070
000000000070
000000000070
000000000070
000000000070
000000000070
000000000070
FFFFFFFFFF70
FFFFFFFFFF70
FFFFFFFFFF70
ENDCHAR
STARTCHAR 0054
ENCODING 84
SWIDTH 1205 0
DWIDTH 41 0
BBX 37 24 2 0
BITMAP
FFFF77FFF8
FFFF77FFF8
FFFF77FFF8
0000700000
0000700000
0000700000
0000700000
0000700000
0000700000
0000700000
0000700000
0000700000
0000700000
0000700000
0000700000
0000700000
0000700000
0000700000
0000700000
0000700000
0000700000
0000700000
0000700000
0000700000
ENDCHAR
STARTCHAR 0055
ENCODING 85
SWIDTH 1294 0
DWIDTH 44 0
BBX 41 24 2 0
BITMAP
E00000000380
E00000000380
E00000000380
E00000000380
E00000000380
E00000000380
E00000000380
E00000000380
E00000000380
E00000000380
E00000000380
E00000000380
E00000000380
E00000000380
E00000000380
E00000000380
E00000000380
E00000000380
E00000000380
E00000000380
E00000000380
EFFFFFFFF380
EFFFFFFFF380
EFFFFFFFF380
ENDCHAR
STARTCHAR 0056
ENCODING 86
SWIDTH 1294 0
DWIDTH 44 0
BBX 40 24 3 0
BITMAP
E000000007
E000000007
E000000007
E000000007
E000000007
E000000007
E000000007
E000000007
E000000007
E000000007
E000000007
E000000007
E000000007
E000000007
E000000007
E000000007
E000000007
E000000007
FC0000003F
FC0000003F
FC0000003F
1FFFFFFF38
1FFFFFFF38
1FFFFFFF38
ENDCHAR
STARTCHAR 0057
ENCODING 87
SWIDTH 1500 0
DWIDTH 51 0
BBX 48 24 2 0
BITMAP
E00073EE0007
E00073EE0007
E00073EE0007
E000700E0007
E000700E0007
E000700E0007
E000700E0007
E000700E0007
E000700E0007
E000700E0007
E000700E0007
E000700E0007
E000700E0007
E000700E0007
E000700E0007
E000700E0007
E000700E0007
E000700E0007
E000700E0007
E000700E0007
E000700E0007
EFFF700FFFE7
EFFF700FFFE7
EFFF700FFFE7
ENDCHAR
STARTCHAR 0058
ENCODING 88
SWIDTH 1294 0
DWIDTH 44 0
BBX 41 24 2 0
BITMAP
E00000000380
E00000000380
E00000000380
E00000000380
E00000000380
E00000000380
E00000000380
EFC00001FB80
EFC00001FB80
EFC00001FB80
01DFFFFDC000
01DFFFFDC000
01DFFFFDC000
EFC00001FB80
EFC00001FB80
EFC00001FB80
E00000000380
E00000000380
E00000000380
E00000000380
E00000000380
E00000000380
E00000000380
E00000000380
ENDCHAR
STARTCHAR 0059
ENCODING 89
SWIDTH 1205 0
DWIDTH 41 0
BBX 37 24 2 0
BITMAP
E000000038
E000000038
E000000038
E000000038
E000000038
E000000038
E000000038
E000000038
E000000038
E000000038
EFFF77FFB8
EFFF77FFB8
EFFF77FFB8
0000700000
0000700000
0000700000
0000700000
0000700000
0000700000
0000700000
0000700000
0000700000
0000700000
0000700000
ENDCHAR
STARTCHAR 005A
ENCODING 90
SWIDTH 1411 0
DWIDTH 48 0
BBX 44 24 2 0
BITMAP
FFFFFFFFFF70
FFFFFFFFFF70
FFFFFFFFFF70
000000000070
000000000070
000000000070
000000000070
000000000070
000000000070
000000000070
EFFFFFFFFF70
EFFFFFFFFF70
EFFFFFFFFF70
E00000000000
E00000000000
E00000000000
E00000000000
E00000000000
E00000000000
E00000000000
E00000000000
EFFFFFFFFFF0
EFFFFFFFFFF0
EFFFFFFFFFF0
ENDCHAR
STARTCHAR 005B
ENCODING 91
SWIDTH 411 0
DWIDTH 14 0
BBX 10 24 2 0
BITMAP
EFC0
EFC0
EFC0
E000
E000
E000
E000
E000
E000
E000
E000
E000
E000
E000
E000
E000
E000
E000
E000
E000
E000
EFC0
EFC0
EFC0
ENDCHAR
STARTCHAR 005C
ENCODING 92
SWIDTH 1000 0
DWIDTH 34 0
BBX 31 24 2 0
BITMAP
E0000000
E0000000
E0000000
E0000000
E0000000
E0000000
E0000000
E0000000
E0000000
E0000000
EFFFFFCE
EFFFFFCE
EFFFFFCE
0000000E
0000000E
0000000E
0000000E
0000000E
0000000E
0000000E
0000000E
0000000E
0000000E
0000000E
ENDCHAR
STARTCHAR 005D
ENCODING 93
SWIDTH 411 0
DWIDTH 14 0
BBX 10 24 2 0
BITMAP
FDC0
FDC0
FDC0
01C0
01C0
01C0
01C0
01C0
01C0
01C0
01C0
01C0
01C0
01C0
01C0
01C0
01C0
01C0
01C0
01C0
01C0
FDC0
FDC0
FDC0
ENDCHAR
STARTCHAR 005E
ENCODING 94
SWIDTH 588 0
DWIDTH 20 0
BBX 17 10 2 14
BITMAP
0FF800
0FF800
0FF800
0E3800
0E3800
0E3800
0E3800
FE3F80
FE3F80
FE3F80
ENDCHAR
STARTCHAR 005F
ENCODING 95
SWIDTH 1411 0
DWIDTH 48 0
BBX 44 4 2 -7
BITMAP
FFFFFFFFFFF0
FFFFFFFFFFF0
FFFFFFFFFFF0
FFFFFFFFFFF0
ENDCHAR
STARTCHAR 0060
ENCODING 96
SWIDTH 441 0
DWIDTH 15 0
BBX 11 10 2 24
BITMAP
E000
E000
E000
EEE0
EEE0
EEE0
00E0
00E0
00E0
00E0
ENDCHAR
STARTCHAR 0061
ENCODING 97
SWIDTH 1411 0
DWIDTH 48 0
BBX 44 24 2 0
BITMAP
FFFFFFFFFF70
FFFFFFFFFF70
FFFFFFFFFF70
000000000070
000000000070
000000000070
000000000070
000000000070
000000000070
000000000070
EFFFFFFFFF70
EFFFFFFFFF70
EFFFFFFFFF70
E00000000070
E00000000070
E00000000070
E00000000070
E00000000070
E00000000070
E00000000070
E00000000070
EFFFFFFFFF70
EFFFFFFFFF70
EFFFFFFFFF70
ENDCHAR
STARTCHAR 0062
ENCODING 98
SWIDTH 1411 0
DWIDTH 48 0
BBX 44 31 2 0
BITMAP
E00000000000
E00000000000
E00000000000
E00000000000
E00000000000
E00000000000
E00000000000
EFFFFFFFFF70
EFFFFFFFFF70
EFFFFFFFFF70
E00000000070
E00000000070
E00000000070
E00000000070
E00000000070
E00000000070
E00000000070
E00000000070
E00000000070
E00000000070
E00000000070
E00000000070
E00000000070
E00000000070
E00000000070
E00000000070
E00000000070
E00000000070
EFFFFFFFFF70
EFFFFFFFFF70
EFFFFFFFFF70
ENDCHAR
STARTCHAR 0063
ENCODING 99
SWIDTH 1294 0
DWIDTH 44 0
BBX 41 24 2 0
BITMAP
EFFFFFFFFF80
EFFFFFFFFF80
EFFFFFFFFF80
E00000000000
E00000000000
E00000000000
E00000000000
E00000000000
E00000000000
E00000000000
E00000000000
E00000000000
E00000000000
E00000000000
E00000000000
E00000000000
E00000000000
E00000000000
E00000000000
E00000000000
E00000000000
EFFFFFFFFF80
EFFFFFFFFF80
EFFFFFFFFF80
ENDCHAR
STARTCHAR 0064
ENCODING 100
SWIDTH 1411 0
DWIDTH 48 0
BBX 44 31 2 0
BITMAP
000000000070
000000000070
000000000070
000000000070
000000000070
000000000070
000000000070
EFFFFFFFFF70
EFFFFFFFFF70
EFFFFFFFFF70
E00000000070
E00000000070
E00000000070
E00000000070
E00000000070
E00000000070
E00000000070
E00000000070
E00000000070
E00000000070
E00000000070
E00000000070
E00000000070
E00000000070
E00000000070
E00000000070
E00000000070
E00000000070
EFFFFFFFFF70
EFFFFFFFFF70
EFFFFFFFFF70
ENDCHAR
STARTCHAR 0065
ENCODING 101
SWIDTH 1411 0
DWIDTH 48 0
BBX 44 24 2 0
BITMAP
EFFFFFFFFF70
EFFFFFFFFF70
EFFFFFFFFF70
E00000000070
E00000000070
E00000000070
E00000000070
E00000000070
E00000000070
E00000000070
EFFFFFFFFF70
EFFFFFFFFF70
EFFFFFFFFF70
E00000000000
E00000000000
E00000000000
E00000000000
E00000000000
E00000000000
E00000000000
E00000000000
EFFFFFFFFFF0
EFFFFFFFFFF0
EFFFFFFFFFF0
ENDCHAR
STARTCHAR 0066
ENCODING 102
SWIDTH 1205 0
DWIDTH 41 0
BBX 37 24 2 0
BITMAP
EFFFFFFFF8
EFFFFFFFF8
EFFFFFFFF8
E000000000
E000000000
E000000000
E000000000
E000000000
E000000000
E000000000
EFFFFFFFF8
EFFFFFFFF8
EFFFFFFFF8
E000000000
E000000000
E000000000
E000000000
E000000000
E000000000
E000000000
E000000000
E000000000
E000000000
E000000000
ENDCHAR
STARTCHAR 0067
ENCODING 103
SWIDTH 1411 0
DWIDTH 48 0
BBX 44 34 2 -10
BITMAP
EFFFFFFFFF70
EFFFFFFFFF70
EFFFFFFFFF70
E00000000070
E00000000070
E00000000070
E00000000070
E00000000070
E00000000070
E00000000070
E00000000070
E00000000070
E00000000070
E00000000070
E00000000070
E00000000070
E00000000070
E00000000070
E00000000070
E00000000070
E00000000070
EFFFFFFFFF70
EFFFFFFFFF70
EFFFFFFFFF70
000000000070
000000000070
000000000070
000000000070
000000000070
000000000070
000000000070
FFFFFFFFFF70
FFFFFFFFFF70
FFFFFFFFFF70
ENDCHAR
STARTCHAR 0068
ENCODING 104
SWIDTH 1411 0
DWIDTH 48 0
BBX 44 31 2 0
BITMAP
E00000000000
E00000000000
E00000000000
E00000000000
E00000000000
E00000000000
E00000000000
EFFFFFFFFF70
EFFFFFFFFF70
EFFFFFFFFF70
E00000000070
E00000000070
E00000000070
E00000000070
E00000000070
E00000000070
E00000000070
E00000000070
E00000000070
E00000000070
E00000000070
E00000000070
E00000000070
E00000000070
E00000000070
E00000000070
E00000000070
E00000000070
E00000000070
E00000000070
E00000000070
ENDCHAR
STARTCHAR 0069
ENCODING 105
SWIDTH 1000 0
DWIDTH 34 0
BBX 30 24 2 0
BITMAP
FFFBFFFC
FFFBFFFC
FFFBFFFC
00038000
00038000
00038000
00038000
00038000
00038000
00038000
00038000
00038000
00038000
00038000
00038000
00038000
00038000
00038000
00038000
00038000
00038000
FFFBFFFC
FFFBFFFC
FFFBFFFC
ENDCHAR
STARTCHAR 006A
ENCODING 106
SWIDTH 441 0
DWIDTH 15 0
BBX 34 34 -21 -10
BITMAP
000000FDC0
000000FDC0
000000FDC0
00000001C0
00000001C0
00000001C0
00000001C0
00000001C0
00000001C0
00000001C0
00000001C0
00000001C0
00000001C0
00000001C0
00000001C0
00000001C0
00000001C0
00000001C0
00000001C0
00000001C0
00000001C0
00000001C0
00000001C0
00000001C0
00000001C0
00000001C0
00000001C0
00000001C0
00000001C0
00000001C0
00000001C0
FFFFFFFDC0
FFFFFFFDC0
FFFFFFFDC0
ENDCHAR
STARTCHAR 006B
ENCODING 107
SWIDTH 1294 0
DWIDTH 44 0
BBX 41 24 2 0
BITMAP
E00000001C00
E00000001C00
E00000001C00
E00000001C00
E00000001C00
E00000001C00
E00000001C00
E00000001C00
E00000001C00
E00000001C00
EFFFFFFF9F80
EFFFFFFF9F80
EFFFFFFF9F80
E00000000380
E00000000380
E00000000380
E00000000380
E00000000380
E00000000380
E00000000380
E00000000380
E00000000380
E00000000380
E00000000380
ENDCHAR
STARTCHAR 006C
ENCODING 108
SWIDTH 1205 0
DWIDTH 41 0
BBX 37 24 2 0
BITMAP
E000000000
E000000000
E000000000
E000000000
E000000000
E000000000
E000000000
E000000000
E000000000
E000000000
E000000000
E000000000
E000000000
E000000000
E000000000
E000000000
E000000000
E000000000
E000000000
E000000000
E000000000
EFFFFFFFF8
EFFFFFFFF8
EFFFFFFFF8
ENDCHAR
STARTCHAR 006D
ENCODING 109
SWIDTH 1588 0
DWIDTH 54 0
BBX 51 24 2 0
BITMAP
EFFFFEEFFFFEE0
EFFFFEEFFFFEE0
EFFFFEEFFFFEE0
E00000E00000E0
E00000E00000E0
E00000E00000E0
E00000E00000E0
E00000E00000E0
E00000E00000E0
E00000E00000E0
E00000E00000E0
E00000E00000E0
E00000E00000E0
E00000E00000E0
E00000E00000E0
E00000E00000E0
E00000E00000E0
E00000E00000E0
E00000E00000E0
E00000E00000E0
E00000E00000E0
E00000E00000E0
E00000E00000E0
E00000E00000E0
ENDCHAR
STARTCHAR 006E
ENCODING 110
SWIDTH 1294 0
DWIDTH 44 0
BBX 41 24 2 0
BITMAP
EFFFFFFFF380
EFFFFFFFF380
EFFFFFFFF380
E00000000380
E00000000380
E00000000380
E00000000380
E00000000380
E00000000380
E00000000380
E00000000380
E00000000380
E00000000380
E00000000380
E00000000380
E00000000380
E00000000380
E00000000380
E00000000380
E00000000380
E00000000380
E00000000380
E00000000380
E00000000380
ENDCHAR
STARTCHAR 006F
ENCODING 111
SWIDTH 1411 0
DWIDTH 48 0
BBX 44 24 2 0
BITMAP
EFFFFFFFFF70
EFFFFFFFFF70
EFFFFFFFFF70
E00000000070
E00000000070
E00000000070
E00000000070
E00000000070
E00000000070
E00000000070
E00000000070
E00000000070
E00000000070
E00000000070
E00000000070
E00000000070
E00000000070
E00000000070
E00000000070
E00000000070
E00000000070
EFFFFFFFFF70
EFFFFFFFFF70
EFFFFFFFFF70
ENDCHAR
STARTCHAR 0070
ENCODING 112
SWIDTH 1411 0
DWIDTH 48 0
BBX 44 34 2 -10
BITMAP
EFFFFFFFFF70
EFFFFFFFFF70
EFFFFFFFFF70
E00000000070
E00000000070
E00000000070
E00000000070
E00000000070
E00000000070
E00000000070
E00000000070
E00000000070
E00000000070
E00000000070
E00000000070
E00000000070
E00000000070
E00000000070
E00000000070
E00000000070
E00000000070
EFFFFFFFFF70
EFFFFFFFFF70
EFFFFFFFFF70
E00000000000
E00000000000
E00000000000
E00000000000
E00000000000
E00000000000
E00000000000
E00000000000
E00000000000
E00000000000
ENDCHAR
STARTCHAR 0071
ENCODING 113
SWIDTH 1411 0
DWIDTH 48 0
BBX 44 34 2 -10
BITMAP
EFFFFFFFFF70
EFFFFFFFFF70
EFFFFFFFFF70
E00000000070
E00000000070
E00000000070
E00000000070
E00000000070
E00000000070
E00000000070
E00000000070
E00000000070
E00000000070
E00000000070
E00000000070
E00000000070
E00000000070
E00000000070
E00000000070
E00000000070
E00000000070
EFFFFFFFFF70
EFFFFFFFFF70
EFFFFFFFFF70
000000000070
000000000070
000000000070
000000000070
000000000070
000000000070
000000000070
000000000070
000000000070
000000000070
ENDCHAR
STARTCHAR 0072
ENCODING 114
SWIDTH 1205 0
DWIDTH 41 0
BBX 37 24 2 0
BITMAP
EFFFFFFFF8
EFFFFFFFF8
EFFFFFFFF8
E000000000
E000000000
E000000000
E000000000
E000000000
E000000000
E000000000
E000000000
E000000000
E000000000
E000000000
E000000000
E000000000
E000000000
E000000000
E000000000
E000000000
E000000000
E000000000
E000000000
E000000000
ENDCHAR
STARTCHAR 0073
ENCODING 115
SWIDTH 1411 0
DWIDTH 48 0
BBX 44 24 2 0
BITMAP
EFFFFFFFFFF0
EFFFFFFFFFF0
EFFFFFFFFFF0
E00000000000
E00000000000
E00000000000
E00000000000
E00000000000
E00000000000
E00000000000
EFFFFFFFFF70
EFFFFFFFFF70
EFFFFFFFFF70
000000000070
000000000070
000000000070
000000000070
000000000070
000000000070
000000000070
000000000070
FFFFFFFFFF70
FFFFFFFFFF70
FFFFFFFFFF70
ENDCHAR
STARTCHAR 0074
ENCODING 116
SWIDTH 1205 0
DWIDTH 41 0
BBX 37 31 2 0
BITMAP
01C0000000
01C0000000
01C0000000
01C0000000
01C0000000
01C0000000
01C0000000
FDDFFFFFF8
FDDFFFFFF8
FDDFFFFFF8
01C0000000
01C0000000
01C0000000
01C0000000
01C0000000
01C0000000
01C0000000
01C0000000
01C0000000
01C0000000
01C0000000
01C0000000
01C0000000
01C0000000
01C0000000
01C0000000
01C0000000
01C0000000
01DFFFFFF8
01DFFFFFF8
01DFFFFFF8
ENDCHAR
STARTCHAR 0075
ENCODING 117
SWIDTH 1294 0
DWIDTH 44 0
BBX 41 24 2 0
BITMAP
E00000000380
E00000000380
E00000000380
E00000000380
E00000000380
E00000000380
E00000000380
E00000000380
E00000000380
E00000000380
E00000000380
E00000000380
E00000000380
E00000000380
E00000000380
E00000000380
E00000000380
E00000000380
E00000000380
E00000000380
E00000000380
EFFFFFFFF380
EFFFFFFFF380
EFFFFFFFF380
ENDCHAR
STARTCHAR 0076
ENCODING 118
SWIDTH 1294 0
DWIDTH 44 0
BBX 40 24 3 0
BITMAP
E000000007
E000000007
E000000007
E000000007
E000000007
E000000007
E000000007
E000000007
E000000007
E000000007
E000000007
E000000007
E000000007
E000000007
E000000007
E000000007
E000000007
E000000007
FC0000003F
FC0000003F
FC0000003F
1FFFFFFF38
1FFFFFFF38
1FFFFFFF38
ENDCHAR
STARTCHAR 0077
ENCODING 119
SWIDTH 1411 0
DWIDTH 48 0
BBX 43 24 2 0
BITMAP
E0000E0000E0
E0000E0000E0
E0000E0000E0
E0000E0000E0
E0000E0000E0
E0000E0000E0
E0000E0000E0
E0000E0000E0
E0000E0000E0
E0000E0000E0
E0000E0000E0
E0000E0000E0
E0000E0000E0
E0000E0000E0
E0000E0000E0
E0000E0000E0
E0000E0000E0
E0000E0000E0
E0000E0000E0
E0000E0000E0
E0000E0000E0
EFFFEEFFFFE0
EFFFEEFFFFE0
EFFFEEFFFFE0
ENDCHAR
STARTCHAR 0078
ENCODING 120
SWIDTH 1294 0
DWIDTH 44 0
BBX 41 24 2 0
BITMAP
E00000000380
E00000000380
E00000000380
E00000000380
E00000000380
E00000000380
E00000000380
EFC00001FB80
EFC00001FB80
EFC00001FB80
01DFFFFDC000
01DFFFFDC000
01DFFFFDC000
EFC00001FB80
EFC00001FB80
EFC00001FB80
E00000000380
E00000000380
E00000000380
E00000000380
E00000000380
E00000000380
E00000000380
E00000000380
ENDCHAR
STARTCHAR 0079
ENCODING 121
SWIDTH 1411 0
DWIDTH 48 0
BBX 44 34 2 -10
BITMAP
E00000000070
E00000000070
E00000000070
E00000000070
E00000000070
E00000000070
E00000000070
E00000000070
E00000000070
E00000000070
E00000000070
E00000000070
E00000000070
E00000000070
E00000000070
E00000000070
E00000000070
E00000000070
E00000000070
E00000000070
E00000000070
EFFFFFFFFF70
EFFFFFFFFF70
EFFFFFFFFF70
000000000070
000000000070
000000000070
000000000070
000000000070
000000000070
000000000070
FFFFFFFFFF70
FFFFFFFFFF70
FFFFFFFFFF70
ENDCHAR
STARTCHAR 007A
ENCODING 122
SWIDTH 1411 0
DWIDTH 48 0
BBX 44 24 2 0
BITMAP
FFFFFFFFFF70
FFFFFFFFFF70
FFFFFFFFFF70
000000000070
000000000070
000000000070
000000000070
000000000070
000000000070
000000000070
EFFFFFFFFF70
EFFFFFFFFF70
EFFFFFFFFF70
E00000000000
E00000000000
E00000000000
E00000000000
E00000000000
E00000000000
E00000000000
E00000000000
EFFFFFFFFFF0
EFFFFFFFFFF0
EFFFFFFFFFF0
ENDCHAR
STARTCHAR 007B
ENCODING 123
SWIDTH 500 0
DWIDTH 17 0
BBX 14 24 2 0
BITMAP
01FC
01FC
01FC
1FC0
1FC0
1FC0
1E00
1E00
1E00
1E00
FE00
FE00
FE00
1E00
1E00
1E00
1E00
1E00
1FC0
1FC0
1FC0
01FC
01FC
01FC
ENDCHAR
STARTCHAR 007C
ENCODING 124
SWIDTH 205 0
DWIDTH 7 0
BBX 3 24 2 0
BITMAP
E0
E0
E0
E0
E0
E0
E0
E0
E0
E0
E0
E0
E0
E0
E0
E0
E0
E0
E0
E0
E0
E0
E0
E0
ENDCHAR
STARTCHAR 007D
ENCODING 125
SWIDTH 500 0
DWIDTH 17 0
BBX 14 24 2 0
BITMAP
FE00
FE00
FE00
1FC0
1FC0
1FC0
01C0
01C0
01C0
01C0
01FC
01FC
01FC
01C0
01C0
01C0
01C0
01C0
1FC0
1FC0
1FC0
FE00
FE00
FE00
ENDCHAR
STARTCHAR 007E
ENCODING 126
SWIDTH 588 0
DWIDTH 20 0
BBX 17 7 2 17
BITMAP
FDC380
FDC380
FDC380
E1FB80
E1FB80
E1FB80
E1FB80
ENDCHAR
STARTCHAR 00A0
ENCODING 160
SWIDTH 32764 0
DWIDTH 1114 0
BBX 0 0 0 0
BITMAP
ENDCHAR
STARTCHAR 00A1
ENCODING 161
SWIDTH 205 0
DWIDTH 7 0
BBX 3 24 2 0
BITMAP
E0
E0
E0
00
00
00
00
E0
E0
E0
E0
E0
E0
E0
E0
E0
E0
E0
E0
E0
E0
E0
E0
E0
ENDCHAR
STARTCHAR 00A2
ENCODING 162
SWIDTH 1205 0
DWIDTH 41 0
BBX 37 30 2 -3
BITMAP
0000700000
0000700000
0000700000
EFFFFFFFF8
EFFFFFFFF8
EFFFFFFFF8
E000000000
E000000000
E000000000
E000000000
E000000000
E000000000
E000000000
E000000000
E000000000
E000000000
E000000000
E000000000
E000000000
E000000000
E000000000
E000000000
E000000000
E000000000
EFFFFFFFF8
EFFFFFFFF8
EFFFFFFFF8
0000700000
0000700000
0000700000
ENDCHAR
STARTCHAR 00A3
ENCODING 163
SWIDTH 1294 0
DWIDTH 44 0
BBX 41 24 2 0
BITMAP
01DFFFE00000
01DFFFE00000
01DFFFE00000
01C000000000
01C000000000
01C000000000
01C000000000
FDDFFFE00000
FDDFFFE00000
FDDFFFE00000
01C000000000
01C000000000
01C000000000
01C000000000
01C000000000
01C000000000
01C000000000
01C000000000
01C000000000
01C000000000
01C000000000
FDDFFFFFFF80
FDDFFFFFFF80
FDDFFFFFFF80
ENDCHAR
STARTCHAR 00A4
ENCODING 164
SWIDTH 1411 0
DWIDTH 48 0
BBX 44 24 2 0
BITMAP
01FFFFFFFFF0
01FFFFFFFFF0
01FFFFFFFFF0
01C000000000
01C000000000
01C000000000
01C000000000
FDDFFFE00000
FDDFFFE00000
FDDFFFE00000
01C000000000
01C000000000
01C000000000
01C000000000
FDDFFFE00000
FDDFFFE00000
FDDFFFE00000
01C000000000
01C000000000
01C000000000
01C000000000
01FFFFFFFFF0
01FFFFFFFFF0
01FFFFFFFFF0
ENDCHAR
STARTCHAR 00A5
ENCODING 165
SWIDTH 1205 0
DWIDTH 41 0
BBX 37 24 2 0
BITMAP
E000000038
E000000038
E000000038
E000000038
E000000038
E000000038
E000000038
E000000038
E000000038
E000000038
EFFF77FFB8
EFFF77FFB8
EFFF77FFB8
0000700000
0000700000
0000700000
0000700000
0FFF77FF80
0FFF77FF80
0FFF77FF80
0000700000
0000700000
0000700000
0000700000
ENDCHAR
STARTCHAR 00A7
ENCODING 167
SWIDTH 1441 0
DWIDTH 49 0
BBX 46 24 2 0
BITMAP
3FFFFFFFFFFC
3FFFFFFFFFFC
3FFFFFFFFFFC
380000000000
380000000000
380000000000
380000000000
3FFFFFFFFFDC
3FFFFFFFFFDC
3FFFFFFFFFDC
38000000001C
38000000001C
38000000001C
38000000001C
3FFFFFFFFFDC
3FFFFFFFFFDC
3FFFFFFFFFDC
00000000001C
00000000001C
00000000001C
00000000001C
FFFFFFFFFFDC
FFFFFFFFFFDC
FFFFFFFFFFDC
ENDCHAR
STARTCHAR 00A8
ENCODING 168
SWIDTH 500 0
DWIDTH 17 0
BBX 14 4 2 20
BITMAP
E01C
E01C
E01C
E01C
ENDCHAR
STARTCHAR 00A9
ENCODING 169
SWIDTH 1088 0
DWIDTH 37 0
BBX 34 27 2 0
BITMAP
EFFFFFFDC0
EFFFFFFDC0
EFFFFFFDC0
E0000001C0
E0000001C0
E0000001C0
E0000001C0
E1DFFFC1C0
E1DFFFC1C0
E1DFFFC1C0
E1C00001C0
E1C00001C0
E1C00001C0
E1C00001C0
E1C00001C0
E1C00001C0
E1C00001C0
E1C00001C0
E1DFFFC1C0
E1DFFFC1C0
E1DFFFC1C0
E0000001C0
E0000001C0
E0000001C0
EFFFFFFDC0
EFFFFFFDC0
EFFFFFFDC0
ENDCHAR
STARTCHAR 00AA
ENCODING 170
SWIDTH 1205 0
DWIDTH 41 0
BBX 37 17 2 7
BITMAP
FFFFFFFFB8
FFFFFFFFB8
FFFFFFFFB8
0000000038
0000000038
0000000038
0000000038
EFFFFFFFB8
EFFFFFFFB8
EFFFFFFFB8
E000000038
E000000038
E000000038
E000000038
EFFFFFFFB8
EFFFFFFFB8
EFFFFFFFB8
ENDCHAR
STARTCHAR 00AB
ENCODING 171
SWIDTH 32764 0
DWIDTH 1114 0
BBX 0 0 0 0
BITMAP
ENDCHAR
STARTCHAR 00AC
ENCODING 172
SWIDTH 1205 0
DWIDTH 41 0
BBX 38 24 2 0
BITMAP
E00000001C
E00000001C
E00000001C
E00000001C
E00000001C
E00000001C
E00000001C
EFFFFFFFFC
EFFFFFFFFC
EFFFFFFFFC
E000000000
E000000000
E000000000
E000000000
EFFFFFFFFC
EFFFFFFFFC
EFFFFFFFFC
E00000001C
E00000001C
E00000001C
E00000001C
E00000001C
E00000001C
E00000001C
ENDCHAR
STARTCHAR 00AE
ENCODING 174
SWIDTH 1088 0
DWIDTH 37 0
BBX 34 27 2 1
BITMAP
EFFFFFFFC0
EFFFFFFFC0
EFFFFFFFC0
E0000003C0
E0000003C0
E0000003C0
E0000003C0
E3DFFFE3C0
E3DFFFE3C0
E3DFFFE3C0
E3C001E3C0
E3C001E3C0
E3C001E3C0
E3DFFFE3C0
E3DFFFE3C0
E3DFFFE3C0
E3DFFFE3C0
E3C01E03C0
E3C01E03C0
E3C01E03C0
E3C01E03C0
E3C01E03C0
E0000003C0
E0000003C0
EFFFFFFFC0
EFFFFFFFC0
EFFFFFFFC0
ENDCHAR
STARTCHAR 00AF
ENCODING 175
SWIDTH 500 0
DWIDTH 17 0
BBX 13 4 2 20
BITMAP
FFF8
FFF8
FFF8
FFF8
ENDCHAR
STARTCHAR 00B0
ENCODING 176
SWIDTH 441 0
DWIDTH 15 0
BBX 11 10 2 17
BITMAP
EEE0
EEE0
EEE0
E0E0
E0E0
E0E0
E0E0
EEE0
EEE0
EEE0
ENDCHAR
STARTCHAR 00B1
ENCODING 177
SWIDTH 411 0
DWIDTH 14 0
BBX 9 17 2 0
BITMAP
1C00
1C00
1C00
FF80
FF80
FF80
1C00
1C00
1C00
1C00
0000
0000
0000
0000
FF80
FF80
FF80
ENDCHAR
STARTCHAR 00B2
ENCODING 178
SWIDTH 794 0
DWIDTH 27 0
BBX 23 26 2 0
BITMAP
800002
800006
40000C
E0001A
70003C
F8603A
7CBC7E
7C78FC
BE39FA
7F7DFC
BFBFF0
6FBFF8
7F7DFC
1FFFF0
3FFFF8
1FFFF0
0F7FE0
00FC00
01FE00
00FE00
0F39E0
1E78E0
0B3BA0
003800
001C00
000C00
ENDCHAR
STARTCHAR 00B3
ENCODING 179
SWIDTH 794 0
DWIDTH 27 0
BBX 23 26 2 0
BITMAP
800002
800006
40000C
E0001A
70003C
F8603A
7CBC7E
7C78FC
BE39FA
7F7DFC
BFBFF0
6FBFF8
7F7DFC
1FFFF0
3FFFF8
1FFFF0
0F7FE0
00FC00
01FE00
00FE00
0F39E0
1E78E0
0B3BA0
003800
001C00
000C00
ENDCHAR
STARTCHAR 00B4
ENCODING 180
SWIDTH 441 0
DWIDTH 15 0
BBX 11 10 2 24
BITMAP
00E0
00E0
00E0
00E0
EEE0
EEE0
E000
E000
E000
E000
ENDCHAR
STARTCHAR 00B5
ENCODING 181
SWIDTH 1411 0
DWIDTH 48 0
BBX 44 34 2 -10
BITMAP
E00000000070
E00000000070
E00000000070
E00000000070
E00000000070
E00000000070
E00000000070
E00000000070
E00000000070
E00000000070
E00000000070
E00000000070
E00000000070
E00000000070
E00000000070
E00000000070
E00000000070
E00000000070
E00000000070
E00000000070
E00000000070
EFFFFFFFFF70
EFFFFFFFFF70
EFFFFFFFFF70
E00000000070
E00000000070
E00000000070
E00000000000
E00000000000
E00000000000
E00000000000
E00000000000
E00000000000
E00000000000
ENDCHAR
STARTCHAR 00B6
ENCODING 182
SWIDTH 705 0
DWIDTH 24 0
BBX 20 24 2 0
BITMAP
E7DF70
E7DF70
E7DF70
E01C70
E01C70
E01C70
E01C70
E01C70
E01C70
E01C70
E01C70
E01C70
E01C70
E01C70
E7DF70
E7DF70
E7DF70
001C70
001C70
001C70
001C70
001C70
001C70
001C70
ENDCHAR
STARTCHAR 00B7
ENCODING 183
SWIDTH 205 0
DWIDTH 7 0
BBX 3 4 2 10
BITMAP
E0
E0
E0
E0
ENDCHAR
STARTCHAR 00B8
ENCODING 184
SWIDTH 411 0
DWIDTH 14 0
BBX 11 14 2 -14
BITMAP
E000
E000
E000
EEE0
EEE0
EEE0
00E0
00E0
00E0
00E0
00E0
FEE0
FEE0
FEE0
ENDCHAR
STARTCHAR 00B9
ENCODING 185
SWIDTH 794 0
DWIDTH 27 0
BBX 23 26 2 0
BITMAP
800002
800006
40000C
E0001A
70003C
F8603A
7CBC7E
7C78FC
BE39FA
7F7DFC
BFBFF0
6FBFF8
7F7DFC
1FFFF0
3FFFF8
1FFFF0
0F7FE0
00FC00
01FE00
00FE00
0F39E0
1E78E0
0B3BA0
003800
001C00
000C00
ENDCHAR
STARTCHAR 00BA
ENCODING 186
SWIDTH 1205 0
DWIDTH 41 0
BBX 37 17 2 7
BITMAP
EFFFFFFFB8
EFFFFFFFB8
EFFFFFFFB8
E000000038
E000000038
E000000038
E000000038
E000000038
E000000038
E000000038
E000000038
E000000038
E000000038
E000000038
EFFFFFFFB8
EFFFFFFFB8
EFFFFFFFB8
ENDCHAR
STARTCHAR 00BB
ENCODING 187
SWIDTH 32764 0
DWIDTH 1114 0
BBX 0 0 0 0
BITMAP
ENDCHAR
STARTCHAR 00BC
ENCODING 188
SWIDTH 794 0
DWIDTH 27 0
BBX 23 26 2 0
BITMAP
800002
800006
40000C
E0001A
70003C
F8603A
7CBC7E
7C78FC
BE39FA
7F7DFC
BFBFF0
6FBFF8
7F7DFC
1FFFF0
3FFFF8
1FFFF0
0F7FE0
00FC00
01FE00
00FE00
0F39E0
1E78E0
0B3BA0
003800
001C00
000C00
ENDCHAR
STARTCHAR 00BD
ENCODING 189
SWIDTH 794 0
DWIDTH 27 0
BBX 23 26 2 0
BITMAP
800002
800006
40000C
E0001A
70003C
F8603A
7CBC7E
7C78FC
BE39FA
7F7DFC
BFBFF0
6FBFF8
7F7DFC
1FFFF0
3FFFF8
1FFFF0
0F7FE0
00FC00
01FE00
00FE00
0F39E0
1E78E0
0B3BA0
003800
001C00
000C00
ENDCHAR
STARTCHAR 00BE
ENCODING 190
SWIDTH 794 0
DWIDTH 27 0
BBX 23 26 2 0
BITMAP
800002
800006
40000C
E0001A
70003C
F8603A
7CBC7E
7C78FC
BE39FA
7F7DFC
BFBFF0
6FBFF8
7F7DFC
1FFFF0
3FFFF8
1FFFF0
0F7FE0
00FC00
01FE00
00FE00
0F39E0
1E78E0
0B3BA0
003800
001C00
000C00
ENDCHAR
STARTCHAR 00BF
ENCODING 191
SWIDTH 1205 0
DWIDTH 41 0
BBX 37 24 2 0
BITMAP
0000070000
0000070000
0000070000
0000000000
0000000000
0000000000
0000000000
0000070000
0000070000
0000070000
EFFFE70000
EFFFE70000
EFFFE70000
E000000000
E000000000
E000000000
E000000000
E000000000
E000000000
E000000000
E000000000
EFFFFFFFF8
EFFFFFFFF8
EFFFFFFFF8
ENDCHAR
STARTCHAR 00C0
ENCODING 192
SWIDTH 1411 0
DWIDTH 48 0
BBX 44 37 1 0
BITMAP
E00000000000
E00000000000
E00000000000
EEE000000000
EEE000000000
EEE000000000
00E000000000
00E000000000
00E000000000
00E000000000
000000000000
000000000000
000000000000
EFFFFFFFFF70
EFFFFFFFFF70
EFFFFFFFFF70
E00000000070
E00000000070
E00000000070
E00000000070
E00000000070
E00000000070
E00000000070
E00000000070
E00000000070
E00000000070
E00000000070
EFFFFFFFFF70
EFFFFFFFFF70
EFFFFFFFFF70
E00000000070
E00000000070
E00000000070
E00000000070
E00000000070
E00000000070
E00000000070
ENDCHAR
STARTCHAR 00C1
ENCODING 193
SWIDTH 1411 0
DWIDTH 48 0
BBX 44 37 1 0
BITMAP
00E000000000
00E000000000
00E000000000
00E000000000
EEE000000000
EEE000000000
E00000000000
E00000000000
E00000000000
E00000000000
000000000000
000000000000
000000000000
EFFFFFFFFF70
EFFFFFFFFF70
EFFFFFFFFF70
E00000000070
E00000000070
E00000000070
E00000000070
E00000000070
E00000000070
E00000000070
E00000000070
E00000000070
E00000000070
E00000000070
EFFFFFFFFF70
EFFFFFFFFF70
EFFFFFFFFF70
E00000000070
E00000000070
E00000000070
E00000000070
E00000000070
E00000000070
E00000000070
ENDCHAR
STARTCHAR 00C2
ENCODING 194
SWIDTH 1411 0
DWIDTH 48 0
BBX 44 34 1 0
BITMAP
0FDC00000000
0FDC00000000
0FDC00000000
EE1F80000000
EE1F80000000
EE1F80000000
EE1F80000000
000000000000
000000000000
000000000000
EFFFFFFFFF70
EFFFFFFFFF70
EFFFFFFFFF70
E00000000070
E00000000070
E00000000070
E00000000070
E00000000070
E00000000070
E00000000070
E00000000070
E00000000070
E00000000070
E00000000070
EFFFFFFFFF70
EFFFFFFFFF70
EFFFFFFFFF70
E00000000070
E00000000070
E00000000070
E00000000070
E00000000070
E00000000070
E00000000070
ENDCHAR
STARTCHAR 00C3
ENCODING 195
SWIDTH 1411 0
DWIDTH 48 0
BBX 44 34 1 0
BITMAP
FDC380000000
FDC380000000
FDC380000000
E1FB80000000
E1FB80000000
E1FB80000000
E1FB80000000
000000000000
000000000000
000000000000
EFFFFFFFFF70
EFFFFFFFFF70
EFFFFFFFFF70
E00000000070
E00000000070
E00000000070
E00000000070
E00000000070
E00000000070
E00000000070
E00000000070
E00000000070
E00000000070
E00000000070
EFFFFFFFFF70
EFFFFFFFFF70
EFFFFFFFFF70
E00000000070
E00000000070
E00000000070
E00000000070
E00000000070
E00000000070
E00000000070
ENDCHAR
STARTCHAR 00C4
ENCODING 196
SWIDTH 1411 0
DWIDTH 48 0
BBX 44 31 1 0
BITMAP
E01C00000000
E01C00000000
E01C00000000
E01C00000000
000000000000
000000000000
000000000000
EFFFFFFFFF70
EFFFFFFFFF70
EFFFFFFFFF70
E00000000070
E00000000070
E00000000070
E00000000070
E00000000070
E00000000070
E00000000070
E00000000070
E00000000070
E00000000070
E00000000070
EFFFFFFFFF70
EFFFFFFFFF70
EFFFFFFFFF70
E00000000070
E00000000070
E00000000070
E00000000070
E00000000070
E00000000070
E00000000070
ENDCHAR
STARTCHAR 00C5
ENCODING 197
SWIDTH 1411 0
DWIDTH 48 0
BBX 44 38 1 0
BITMAP
EFEE00000000
EFEE00000000
EFEE00000000
E00E00000000
E00E00000000
E00E00000000
E00E00000000
EFEE00000000
EFEE00000000
EFEE00000000
EFEE00000000
000000000000
000000000000
000000000000
EFFFFFFFFF70
EFFFFFFFFF70
EFFFFFFFFF70
E00000000070
E00000000070
E00000000070
E00000000070
E00000000070
E00000000070
E00000000070
E00000000070
E00000000070
E00000000070
E00000000070
EFFFFFFFFF70
EFFFFFFFFF70
EFFFFFFFFF70
E00000000070
E00000000070
E00000000070
E00000000070
E00000000070
E00000000070
E00000000070
ENDCHAR
STARTCHAR 00C6
ENCODING 198
SWIDTH 1794 0
DWIDTH 61 0
BBX 58 24 2 0
BITMAP
EFFFFFFDFFFFFFC0
EFFFFFFDFFFFFFC0
EFFFFFFDFFFFFFC0
E0000001C0000000
E0000001C0000000
E0000001C0000000
E0000001C0000000
E0000001C0000000
E0000001C0000000
E0000001C0000000
E0000001FFFFFFC0
E0000001FFFFFFC0
E0000001FFFFFFC0
EFFFFFFDC0000000
EFFFFFFDC0000000
EFFFFFFDC0000000
E0000001C0000000
E0000001C0000000
E0000001C0000000
E0000001C0000000
E0000001C0000000
E0000001FFFFFFC0
E0000001FFFFFFC0
E0000001FFFFFFC0
ENDCHAR
STARTCHAR 00C7
ENCODING 199
SWIDTH 1411 0
DWIDTH 48 0
BBX 41 38 1 -14
BITMAP
EFFFFFFFFF80
EFFFFFFFFF80
EFFFFFFFFF80
E00000000000
E00000000000
E00000000000
E00000000000
E00000000000
E00000000000
E00000000000
E00000000000
E00000000000
E00000000000
E00000000000
E00000000000
E00000000000
E00000000000
E00000000000
E00000000000
E00000000000
E00000000000
EFFFFFFFFF80
EFFFFFFFFF80
EFFFFFFFFF80
E00000000000
E00000000000
E00000000000
EEE000000000
EEE000000000
EEE000000000
00E000000000
00E000000000
00E000000000
00E000000000
00E000000000
FEE000000000
FEE000000000
FEE000000000
ENDCHAR
STARTCHAR 00C8
ENCODING 200
SWIDTH 1294 0
DWIDTH 44 0
BBX 41 37 1 0
BITMAP
E00000000000
E00000000000
E00000000000
EEE000000000
EEE000000000
EEE000000000
00E000000000
00E000000000
00E000000000
00E000000000
000000000000
000000000000
000000000000
EFFFFFFFFF80
EFFFFFFFFF80
EFFFFFFFFF80
E00000000000
E00000000000
E00000000000
E00000000000
E00000000000
E00000000000
E00000000000
EFFFFFFFFF80
EFFFFFFFFF80
EFFFFFFFFF80
E00000000000
E00000000000
E00000000000
E00000000000
E00000000000
E00000000000
E00000000000
E00000000000
EFFFFFFFFF80
EFFFFFFFFF80
EFFFFFFFFF80
ENDCHAR
STARTCHAR 00C9
ENCODING 201
SWIDTH 1294 0
DWIDTH 44 0
BBX 41 37 1 0
BITMAP
00E000000000
00E000000000
00E000000000
00E000000000
EEE000000000
EEE000000000
E00000000000
E00000000000
E00000000000
E00000000000
000000000000
000000000000
000000000000
EFFFFFFFFF80
EFFFFFFFFF80
EFFFFFFFFF80
E00000000000
E00000000000
E00000000000
E00000000000
E00000000000
E00000000000
E00000000000
EFFFFFFFFF80
EFFFFFFFFF80
EFFFFFFFFF80
E00000000000
E00000000000
E00000000000
E00000000000
E00000000000
E00000000000
E00000000000
E00000000000
EFFFFFFFFF80
EFFFFFFFFF80
EFFFFFFFFF80
ENDCHAR
STARTCHAR 00CA
ENCODING 202
SWIDTH 1294 0
DWIDTH 44 0
BBX 41 34 1 0
BITMAP
0FDC00000000
0FDC00000000
0FDC00000000
EE1F80000000
EE1F80000000
EE1F80000000
EE1F80000000
000000000000
000000000000
000000000000
EFFFFFFFFF80
EFFFFFFFFF80
EFFFFFFFFF80
E00000000000
E00000000000
E00000000000
E00000000000
E00000000000
E00000000000
E00000000000
EFFFFFFFFF80
EFFFFFFFFF80
EFFFFFFFFF80
E00000000000
E00000000000
E00000000000
E00000000000
E00000000000
E00000000000
E00000000000
E00000000000
EFFFFFFFFF80
EFFFFFFFFF80
EFFFFFFFFF80
ENDCHAR
STARTCHAR 00CB
ENCODING 203
SWIDTH 1294 0
DWIDTH 44 0
BBX 41 31 1 0
BITMAP
E01C00000000
E01C00000000
E01C00000000
E01C00000000
000000000000
000000000000
000000000000
EFFFFFFFFF80
EFFFFFFFFF80
EFFFFFFFFF80
E00000000000
E00000000000
E00000000000
E00000000000
E00000000000
E00000000000
E00000000000
EFFFFFFFFF80
EFFFFFFFFF80
EFFFFFFFFF80
E00000000000
E00000000000
E00000000000
E00000000000
E00000000000
E00000000000
E00000000000
E00000000000
EFFFFFFFFF80
EFFFFFFFFF80
EFFFFFFFFF80
ENDCHAR
STARTCHAR 00CC
ENCODING 204
SWIDTH 1000 0
DWIDTH 34 0
BBX 31 37 1 0
BITMAP
E0000000
E0000000
E0000000
EEE00000
EEE00000
EEE00000
00E00000
00E00000
00E00000
00E00000
00000000
00000000
00000000
FFFBBFFE
FFFBBFFE
FFFBBFFE
00038000
00038000
00038000
00038000
00038000
00038000
00038000
00038000
00038000
00038000
00038000
00038000
00038000
00038000
00038000
00038000
00038000
00038000
FFFBBFFE
FFFBBFFE
FFFBBFFE
ENDCHAR
STARTCHAR 00CD
ENCODING 205
SWIDTH 1000 0
DWIDTH 34 0
BBX 31 37 1 0
BITMAP
00E00000
00E00000
00E00000
00E00000
EEE00000
EEE00000
E0000000
E0000000
E0000000
E0000000
00000000
00000000
00000000
FFFBBFFE
FFFBBFFE
FFFBBFFE
00038000
00038000
00038000
00038000
00038000
00038000
00038000
00038000
00038000
00038000
00038000
00038000
00038000
00038000
00038000
00038000
00038000
00038000
FFFBBFFE
FFFBBFFE
FFFBBFFE
ENDCHAR
STARTCHAR 00CE
ENCODING 206
SWIDTH 1000 0
DWIDTH 34 0
BBX 31 34 1 0
BITMAP
0FDC0000
0FDC0000
0FDC0000
EE1F8000
EE1F8000
EE1F8000
EE1F8000
00000000
00000000
00000000
FFFBBFFE
FFFBBFFE
FFFBBFFE
00038000
00038000
00038000
00038000
00038000
00038000
00038000
00038000
00038000
00038000
00038000
00038000
00038000
00038000
00038000
00038000
00038000
00038000
FFFBBFFE
FFFBBFFE
FFFBBFFE
ENDCHAR
STARTCHAR 00CF
ENCODING 207
SWIDTH 1000 0
DWIDTH 34 0
BBX 31 31 1 0
BITMAP
E01C0000
E01C0000
E01C0000
E01C0000
00000000
00000000
00000000
FFFBBFFE
FFFBBFFE
FFFBBFFE
00038000
00038000
00038000
00038000
00038000
00038000
00038000
00038000
00038000
00038000
00038000
00038000
00038000
00038000
00038000
00038000
00038000
00038000
FFFBBFFE
FFFBBFFE
FFFBBFFE
ENDCHAR
STARTCHAR 00D1
ENCODING 209
SWIDTH 1205 0
DWIDTH 41 0
BBX 37 34 1 0
BITMAP
FDC3800000
FDC3800000
FDC3800000
E1FB800000
E1FB800000
E1FB800000
E1FB800000
0000000000
0000000000
0000000000
EFFF700038
EFFF700038
EFFF700038
E000700038
E000700038
E000700038
E000700038
E000700038
E000700038
E000700038
E000700038
E000700038
E000700038
E000700038
E000700038
E000700038
E000700038
E000700038
E000700038
E000700038
E000700038
E00077FFB8
E00077FFB8
E00077FFB8
ENDCHAR
STARTCHAR 00D2
ENCODING 210
SWIDTH 1411 0
DWIDTH 48 0
BBX 44 37 1 0
BITMAP
E00000000000
E00000000000
E00000000000
EEE000000000
EEE000000000
EEE000000000
00E000000000
00E000000000
00E000000000
00E000000000
000000000000
000000000000
000000000000
EFFFFFFFFF70
EFFFFFFFFF70
EFFFFFFFFF70
E00000000070
E00000000070
E00000000070
E00000000070
E00000000070
E00000000070
E00000000070
E00000000070
E00000000070
E00000000070
E00000000070
E00000000070
E00000000070
E00000000070
E00000000070
E00000000070
E00000000070
E00000000070
EFFFFFFFFF70
EFFFFFFFFF70
EFFFFFFFFF70
ENDCHAR
STARTCHAR 00D3
ENCODING 211
SWIDTH 1411 0
DWIDTH 48 0
BBX 44 37 1 0
BITMAP
00E000000000
00E000000000
00E000000000
00E000000000
EEE000000000
EEE000000000
E00000000000
E00000000000
E00000000000
E00000000000
000000000000
000000000000
000000000000
EFFFFFFFFF70
EFFFFFFFFF70
EFFFFFFFFF70
E00000000070
E00000000070
E00000000070
E00000000070
E00000000070
E00000000070
E00000000070
E00000000070
E00000000070
E00000000070
E00000000070
E00000000070
E00000000070
E00000000070
E00000000070
E00000000070
E00000000070
E00000000070
EFFFFFFFFF70
EFFFFFFFFF70
EFFFFFFFFF70
ENDCHAR
STARTCHAR 00D4
ENCODING 212
SWIDTH 1411 0
DWIDTH 48 0
BBX 44 34 1 0
BITMAP
0FDC00000000
0FDC00000000
0FDC00000000
EE1F80000000
EE1F80000000
EE1F80000000
EE1F80000000
000000000000
000000000000
000000000000
EFFFFFFFFF70
EFFFFFFFFF70
EFFFFFFFFF70
E00000000070
E00000000070
E00000000070
E00000000070
E00000000070
E00000000070
E00000000070
E00000000070
E00000000070
E00000000070
E00000000070
E00000000070
E00000000070
E00000000070
E00000000070
E00000000070
E00000000070
E00000000070
EFFFFFFFFF70
EFFFFFFFFF70
EFFFFFFFFF70
ENDCHAR
STARTCHAR 00D5
ENCODING 213
SWIDTH 1411 0
DWIDTH 48 0
BBX 44 34 1 0
BITMAP
FDC380000000
FDC380000000
FDC380000000
E1FB80000000
E1FB80000000
E1FB80000000
E1FB80000000
000000000000
000000000000
000000000000
EFFFFFFFFF70
EFFFFFFFFF70
EFFFFFFFFF70
E00000000070
E00000000070
E00000000070
E00000000070
E00000000070
E00000000070
E00000000070
E00000000070
E00000000070
E00000000070
E00000000070
E00000000070
E00000000070
E00000000070
E00000000070
E00000000070
E00000000070
E00000000070
EFFFFFFFFF70
EFFFFFFFFF70
EFFFFFFFFF70
ENDCHAR
STARTCHAR 00D6
ENCODING 214
SWIDTH 1411 0
DWIDTH 48 0
BBX 44 31 1 0
BITMAP
E01C00000000
E01C00000000
E01C00000000
E01C00000000
000000000000
000000000000
000000000000
EFFFFFFFFF70
EFFFFFFFFF70
EFFFFFFFFF70
E00000000070
E00000000070
E00000000070
E00000000070
E00000000070
E00000000070
E00000000070
E00000000070
E00000000070
E00000000070
E00000000070
E00000000070
E00000000070
E00000000070
E00000000070
E00000000070
E00000000070
E00000000070
EFFFFFFFFF70
EFFFFFFFFF70
EFFFFFFFFF70
ENDCHAR
STARTCHAR 00D8
ENCODING 216
SWIDTH 1411 0
DWIDTH 48 0
BBX 44 24 2 0
BITMAP
EFFFFFFFFF70
EFFFFFFFFF70
EFFFFFFFFF70
E00000000070
E00000003870
E00000003870
E00000003870
E00000003870
E00000003870
E00000003870
E1FFFFFFF870
E1FFFFFFF870
E1FFFFFFF870
E1FFFFFFF870
E1C000000070
E1C000000070
E1C000000070
E1C000000070
E1C000000070
E1C000000070
E00000000070
EFFFFFFFFF70
EFFFFFFFFF70
EFFFFFFFFF70
ENDCHAR
STARTCHAR 00D9
ENCODING 217
SWIDTH 1294 0
DWIDTH 44 0
BBX 41 37 1 0
BITMAP
E00000000000
E00000000000
E00000000000
EEE000000000
EEE000000000
EEE000000000
00E000000000
00E000000000
00E000000000
00E000000000
000000000000
000000000000
000000000000
E00000000380
E00000000380
E00000000380
E00000000380
E00000000380
E00000000380
E00000000380
E00000000380
E00000000380
E00000000380
E00000000380
E00000000380
E00000000380
E00000000380
E00000000380
E00000000380
E00000000380
E00000000380
E00000000380
E00000000380
E00000000380
EFFFFFFFFB80
EFFFFFFFFB80
EFFFFFFFFB80
ENDCHAR
STARTCHAR 00DA
ENCODING 218
SWIDTH 1294 0
DWIDTH 44 0
BBX 41 37 1 0
BITMAP
00E000000000
00E000000000
00E000000000
00E000000000
EEE000000000
EEE000000000
E00000000000
E00000000000
E00000000000
E00000000000
000000000000
000000000000
000000000000
E00000000380
E00000000380
E00000000380
E00000000380
E00000000380
E00000000380
E00000000380
E00000000380
E00000000380
E00000000380
E00000000380
E00000000380
E00000000380
E00000000380
E00000000380
E00000000380
E00000000380
E00000000380
E00000000380
E00000000380
E00000000380
EFFFFFFFFB80
EFFFFFFFFB80
EFFFFFFFFB80
ENDCHAR
STARTCHAR 00DB
ENCODING 219
SWIDTH 1294 0
DWIDTH 44 0
BBX 41 34 1 0
BITMAP
0FDC00000000
0FDC00000000
0FDC00000000
EE1F80000000
EE1F80000000
EE1F80000000
EE1F80000000
000000000000
000000000000
000000000000
E00000000380
E00000000380
E00000000380
E00000000380
E00000000380
E00000000380
E00000000380
E00000000380
E00000000380
E00000000380
E00000000380
E00000000380
E00000000380
E00000000380
E00000000380
E00000000380
E00000000380
E00000000380
E00000000380
E00000000380
E00000000380
EFFFFFFFFB80
EFFFFFFFFB80
EFFFFFFFFB80
ENDCHAR
STARTCHAR 00DC
ENCODING 220
SWIDTH 1294 0
DWIDTH 44 0
BBX 41 31 1 0
BITMAP
E01C00000000
E01C00000000
E01C00000000
E01C00000000
000000000000
000000000000
000000000000
E00000000380
E00000000380
E00000000380
E00000000380
E00000000380
E00000000380
E00000000380
E00000000380
E00000000380
E00000000380
E00000000380
E00000000380
E00000000380
E00000000380
E00000000380
E00000000380
E00000000380
E00000000380
E00000000380
E00000000380
E00000000380
EFFFFFFFFB80
EFFFFFFFFB80
EFFFFFFFFB80
ENDCHAR
STARTCHAR 00DF
ENCODING 223
SWIDTH 1411 0
DWIDTH 48 0
BBX 44 24 2 0
BITMAP
EFFFFFFFF380
EFFFFFFFF380
EFFFFFFFF380
E00000000380
E00000000380
E00000000380
E00000000380
E00000000380
E00000000380
E00000000380
E1FFFFFFF3F0
E1FFFFFFF3F0
E1FFFFFFF3F0
E00000000070
E00000000070
E00000000070
E00000000070
E00000000070
E00000000070
E00000000070
E00000000070
E1FFFFFFFF70
E1FFFFFFFF70
E1FFFFFFFF70
ENDCHAR
STARTCHAR 00E0
ENCODING 224
SWIDTH 1441 0
DWIDTH 49 0
BBX 46 37 1 0
BITMAP
E00000000000
E00000000000
E00000000000
EEE000000000
EEE000000000
EEE000000000
00E000000000
00E000000000
00E000000000
00E000000000
000000000000
000000000000
000000000000
3FFFFFFFFFDC
3FFFFFFFFFDC
3FFFFFFFFFDC
00000000001C
00000000001C
00000000001C
00000000001C
00000000001C
00000000001C
00000000001C
3BFFFFFFFFDC
3BFFFFFFFFDC
3BFFFFFFFFDC
38000000001C
38000000001C
38000000001C
38000000001C
38000000001C
38000000001C
38000000001C
38000000001C
3BFFFFFFFFDC
3BFFFFFFFFDC
3BFFFFFFFFDC
ENDCHAR
STARTCHAR 00E1
ENCODING 225
SWIDTH 1411 0
DWIDTH 48 0
BBX 44 37 1 0
BITMAP
00E000000000
00E000000000
00E000000000
00E000000000
EEE000000000
EEE000000000
E00000000000
E00000000000
E00000000000
E00000000000
000000000000
000000000000
000000000000
FFFFFFFFFF70
FFFFFFFFFF70
FFFFFFFFFF70
000000000070
000000000070
000000000070
000000000070
000000000070
000000000070
000000000070
EFFFFFFFFF70
EFFFFFFFFF70
EFFFFFFFFF70
E00000000070
E00000000070
E00000000070
E00000000070
E00000000070
E00000000070
E00000000070
E00000000070
EFFFFFFFFF70
EFFFFFFFFF70
EFFFFFFFFF70
ENDCHAR
STARTCHAR 00E2
ENCODING 226
SWIDTH 1411 0
DWIDTH 48 0
BBX 44 34 1 0
BITMAP
0FDC00000000
0FDC00000000
0FDC00000000
EE1F80000000
EE1F80000000
EE1F80000000
EE1F80000000
000000000000
000000000000
000000000000
FFFFFFFFFF70
FFFFFFFFFF70
FFFFFFFFFF70
000000000070
000000000070
000000000070
000000000070
000000000070
000000000070
000000000070
EFFFFFFFFF70
EFFFFFFFFF70
EFFFFFFFFF70
E00000000070
E00000000070
E00000000070
E00000000070
E00000000070
E00000000070
E00000000070
E00000000070
EFFFFFFFFF70
EFFFFFFFFF70
EFFFFFFFFF70
ENDCHAR
STARTCHAR 00E3
ENCODING 227
SWIDTH 1411 0
DWIDTH 48 0
BBX 44 34 1 0
BITMAP
FDC380000000
FDC380000000
FDC380000000
E1FB80000000
E1FB80000000
E1FB80000000
E1FB80000000
000000000000
000000000000
000000000000
FFFFFFFFFF70
FFFFFFFFFF70
FFFFFFFFFF70
000000000070
000000000070
000000000070
000000000070
000000000070
000000000070
000000000070
EFFFFFFFFF70
EFFFFFFFFF70
EFFFFFFFFF70
E00000000070
E00000000070
E00000000070
E00000000070
E00000000070
E00000000070
E00000000070
E00000000070
EFFFFFFFFF70
EFFFFFFFFF70
EFFFFFFFFF70
ENDCHAR
STARTCHAR 00E4
ENCODING 228
SWIDTH 1411 0
DWIDTH 48 0
BBX 44 31 1 0
BITMAP
E01C00000000
E01C00000000
E01C00000000
E01C00000000
000000000000
000000000000
000000000000
FFFFFFFFFF70
FFFFFFFFFF70
FFFFFFFFFF70
000000000070
000000000070
000000000070
000000000070
000000000070
000000000070
000000000070
EFFFFFFFFF70
EFFFFFFFFF70
EFFFFFFFFF70
E00000000070
E00000000070
E00000000070
E00000000070
E00000000070
E00000000070
E00000000070
E00000000070
EFFFFFFFFF70
EFFFFFFFFF70
EFFFFFFFFF70
ENDCHAR
STARTCHAR 00E5
ENCODING 229
SWIDTH 1411 0
DWIDTH 48 0
BBX 44 38 1 0
BITMAP
EFEE00000000
EFEE00000000
EFEE00000000
E00E00000000
E00E00000000
E00E00000000
E00E00000000
EFEE00000000
EFEE00000000
EFEE00000000
EFEE00000000
000000000000
000000000000
000000000000
FFFFFFFFFF70
FFFFFFFFFF70
FFFFFFFFFF70
000000000070
000000000070
000000000070
000000000070
000000000070
000000000070
000000000070
EFFFFFFFFF70
EFFFFFFFFF70
EFFFFFFFFF70
E00000000070
E00000000070
E00000000070
E00000000070
E00000000070
E00000000070
E00000000070
E00000000070
EFFFFFFFFF70
EFFFFFFFFF70
EFFFFFFFFF70
ENDCHAR
STARTCHAR 00E6
ENCODING 230
SWIDTH 1794 0
DWIDTH 61 0
BBX 58 24 2 0
BITMAP
FFFFFFDDFFFFFBC0
FFFFFFDDFFFFFBC0
FFFFFFDDFFFFFBC0
FFFFFFDDFFFFFBC0
0000001C000003C0
0000001C000003C0
0000001C000003C0
0000001C000003C0
0000001C000003C0
0000001C000003C0
EFFFFFDDFFFFFBC0
EFFFFFDDFFFFFBC0
EFFFFFDDFFFFFBC0
EFFFFFDDFFFFFBC0
E000001C00000000
E000001C00000000
E000001C00000000
E000001C00000000
E000001C00000000
E000001C00000000
E000001C00000000
EFFFFFDDFFFFFFC0
EFFFFFDDFFFFFFC0
EFFFFFDDFFFFFFC0
ENDCHAR
STARTCHAR 00E7
ENCODING 231
SWIDTH 1411 0
DWIDTH 48 0
BBX 41 38 1 -14
BITMAP
EFFFFFFFFF80
EFFFFFFFFF80
EFFFFFFFFF80
E00000000000
E00000000000
E00000000000
E00000000000
E00000000000
E00000000000
E00000000000
E00000000000
E00000000000
E00000000000
E00000000000
E00000000000
E00000000000
E00000000000
E00000000000
E00000000000
E00000000000
E00000000000
EFFFFFFFFF80
EFFFFFFFFF80
EFFFFFFFFF80
E00000000000
E00000000000
E00000000000
EEE000000000
EEE000000000
EEE000000000
00E000000000
00E000000000
00E000000000
00E000000000
00E000000000
FEE000000000
FEE000000000
FEE000000000
ENDCHAR
STARTCHAR 00E8
ENCODING 232
SWIDTH 1441 0
DWIDTH 49 0
BBX 46 37 1 0
BITMAP
E00000000000
E00000000000
E00000000000
EEE000000000
EEE000000000
EEE000000000
00E000000000
00E000000000
00E000000000
00E000000000
000000000000
000000000000
000000000000
3BFFFFFFFFDC
3BFFFFFFFFDC
3BFFFFFFFFDC
38000000001C
38000000001C
38000000001C
38000000001C
38000000001C
38000000001C
38000000001C
3BFFFFFFFFDC
3BFFFFFFFFDC
3BFFFFFFFFDC
380000000000
380000000000
380000000000
380000000000
380000000000
380000000000
380000000000
380000000000
3BFFFFFFFFFC
3BFFFFFFFFFC
3BFFFFFFFFFC
ENDCHAR
STARTCHAR 00E9
ENCODING 233
SWIDTH 1411 0
DWIDTH 48 0
BBX 44 37 1 0
BITMAP
00E000000000
00E000000000
00E000000000
00E000000000
EEE000000000
EEE000000000
E00000000000
E00000000000
E00000000000
E00000000000
000000000000
000000000000
000000000000
EFFFFFFFFF70
EFFFFFFFFF70
EFFFFFFFFF70
E00000000070
E00000000070
E00000000070
E00000000070
E00000000070
E00000000070
E00000000070
EFFFFFFFFF70
EFFFFFFFFF70
EFFFFFFFFF70
E00000000000
E00000000000
E00000000000
E00000000000
E00000000000
E00000000000
E00000000000
E00000000000
EFFFFFFFFFF0
EFFFFFFFFFF0
EFFFFFFFFFF0
ENDCHAR
STARTCHAR 00EA
ENCODING 234
SWIDTH 1411 0
DWIDTH 48 0
BBX 44 34 1 0
BITMAP
0FDC00000000
0FDC00000000
0FDC00000000
EE1F80000000
EE1F80000000
EE1F80000000
EE1F80000000
000000000000
000000000000
000000000000
EFFFFFFFFF70
EFFFFFFFFF70
EFFFFFFFFF70
E00000000070
E00000000070
E00000000070
E00000000070
E00000000070
E00000000070
E00000000070
EFFFFFFFFF70
EFFFFFFFFF70
EFFFFFFFFF70
E00000000000
E00000000000
E00000000000
E00000000000
E00000000000
E00000000000
E00000000000
E00000000000
EFFFFFFFFFF0
EFFFFFFFFFF0
EFFFFFFFFFF0
ENDCHAR
STARTCHAR 00EB
ENCODING 235
SWIDTH 1411 0
DWIDTH 48 0
BBX 44 31 1 0
BITMAP
E01C00000000
E01C00000000
E01C00000000
E01C00000000
000000000000
000000000000
000000000000
EFFFFFFFFF70
EFFFFFFFFF70
EFFFFFFFFF70
E00000000070
E00000000070
E00000000070
E00000000070
E00000000070
E00000000070
E00000000070
EFFFFFFFFF70
EFFFFFFFFF70
EFFFFFFFFF70
E00000000000
E00000000000
E00000000000
E00000000000
E00000000000
E00000000000
E00000000000
E00000000000
EFFFFFFFFFF0
EFFFFFFFFFF0
EFFFFFFFFFF0
ENDCHAR
STARTCHAR 00EC
ENCODING 236
SWIDTH 441 0
DWIDTH 15 0
BBX 31 37 1 0
BITMAP
E0000000
E0000000
E0000000
EEE00000
EEE00000
EEE00000
00E00000
00E00000
00E00000
00E00000
00000000
00000000
00000000
FFFBBFFE
FFFBBFFE
FFFBBFFE
00038000
00038000
00038000
00038000
00038000
00038000
00038000
00038000
00038000
00038000
00038000
00038000
00038000
00038000
00038000
00038000
00038000
00038000
FFFBBFFE
FFFBBFFE
FFFBBFFE
ENDCHAR
STARTCHAR 00ED
ENCODING 237
SWIDTH 205 0
DWIDTH 7 0
BBX 31 37 1 0
BITMAP
00E00000
00E00000
00E00000
00E00000
EEE00000
EEE00000
E0000000
E0000000
E0000000
E0000000
00000000
00000000
00000000
FFFBBFFE
FFFBBFFE
FFFBBFFE
00038000
00038000
00038000
00038000
00038000
00038000
00038000
00038000
00038000
00038000
00038000
00038000
00038000
00038000
00038000
00038000
00038000
00038000
FFFBBFFE
FFFBBFFE
FFFBBFFE
ENDCHAR
STARTCHAR 00EE
ENCODING 238
SWIDTH 205 0
DWIDTH 7 0
BBX 31 34 1 0
BITMAP
0FDC0000
0FDC0000
0FDC0000
EE1F8000
EE1F8000
EE1F8000
EE1F8000
00000000
00000000
00000000
FFFBBFFE
FFFBBFFE
FFFBBFFE
00038000
00038000
00038000
00038000
00038000
00038000
00038000
00038000
00038000
00038000
00038000
00038000
00038000
00038000
00038000
00038000
00038000
00038000
FFFBBFFE
FFFBBFFE
FFFBBFFE
ENDCHAR
STARTCHAR 00EF
ENCODING 239
SWIDTH 500 0
DWIDTH 17 0
BBX 31 31 1 0
BITMAP
E01C0000
E01C0000
E01C0000
E01C0000
00000000
00000000
00000000
FFFBBFFE
FFFBBFFE
FFFBBFFE
00038000
00038000
00038000
00038000
00038000
00038000
00038000
00038000
00038000
00038000
00038000
00038000
00038000
00038000
00038000
00038000
00038000
00038000
FFFBBFFE
FFFBBFFE
FFFBBFFE
ENDCHAR
STARTCHAR 00F1
ENCODING 241
SWIDTH 1294 0
DWIDTH 44 0
BBX 41 34 1 0
BITMAP
FDC380000000
FDC380000000
FDC380000000
E1FB80000000
E1FB80000000
E1FB80000000
E1FB80000000
000000000000
000000000000
000000000000
EFFFFFFFFB80
EFFFFFFFFB80
EFFFFFFFFB80
E00000000380
E00000000380
E00000000380
E00000000380
E00000000380
E00000000380
E00000000380
E00000000380
E00000000380
E00000000380
E00000000380
E00000000380
E00000000380
E00000000380
E00000000380
E00000000380
E00000000380
E00000000380
E00000000380
E00000000380
E00000000380
ENDCHAR
STARTCHAR 00F2
ENCODING 242
SWIDTH 1411 0
DWIDTH 48 0
BBX 44 37 1 0
BITMAP
E00000000000
E00000000000
E00000000000
EEE000000000
EEE000000000
EEE000000000
00E000000000
00E000000000
00E000000000
00E000000000
000000000000
000000000000
000000000000
EFFFFFFFFF70
EFFFFFFFFF70
EFFFFFFFFF70
E00000000070
E00000000070
E00000000070
E00000000070
E00000000070
E00000000070
E00000000070
E00000000070
E00000000070
E00000000070
E00000000070
E00000000070
E00000000070
E00000000070
E00000000070
E00000000070
E00000000070
E00000000070
EFFFFFFFFF70
EFFFFFFFFF70
EFFFFFFFFF70
ENDCHAR
STARTCHAR 00F3
ENCODING 243
SWIDTH 1411 0
DWIDTH 48 0
BBX 44 37 1 0
BITMAP
00E000000000
00E000000000
00E000000000
00E000000000
EEE000000000
EEE000000000
E00000000000
E00000000000
E00000000000
E00000000000
000000000000
000000000000
000000000000
EFFFFFFFFF70
EFFFFFFFFF70
EFFFFFFFFF70
E00000000070
E00000000070
E00000000070
E00000000070
E00000000070
E00000000070
E00000000070
E00000000070
E00000000070
E00000000070
E00000000070
E00000000070
E00000000070
E00000000070
E00000000070
E00000000070
E00000000070
E00000000070
EFFFFFFFFF70
EFFFFFFFFF70
EFFFFFFFFF70
ENDCHAR
STARTCHAR 00F4
ENCODING 244
SWIDTH 1411 0
DWIDTH 48 0
BBX 44 34 1 0
BITMAP
0FDC00000000
0FDC00000000
0FDC00000000
EE1F80000000
EE1F80000000
EE1F80000000
EE1F80000000
000000000000
000000000000
000000000000
EFFFFFFFFF70
EFFFFFFFFF70
EFFFFFFFFF70
E00000000070
E00000000070
E00000000070
E00000000070
E00000000070
E00000000070
E00000000070
E00000000070
E00000000070
E00000000070
E00000000070
E00000000070
E00000000070
E00000000070
E00000000070
E00000000070
E00000000070
E00000000070
EFFFFFFFFF70
EFFFFFFFFF70
EFFFFFFFFF70
ENDCHAR
STARTCHAR 00F5
ENCODING 245
SWIDTH 1411 0
DWIDTH 48 0
BBX 44 34 1 0
BITMAP
FDC380000000
FDC380000000
FDC380000000
E1FB80000000
E1FB80000000
E1FB80000000
E1FB80000000
000000000000
000000000000
000000000000
EFFFFFFFFF70
EFFFFFFFFF70
EFFFFFFFFF70
E00000000070
E00000000070
E00000000070
E00000000070
E00000000070
E00000000070
E00000000070
E00000000070
E00000000070
E00000000070
E00000000070
E00000000070
E00000000070
E00000000070
E00000000070
E00000000070
E00000000070
E00000000070
EFFFFFFFFF70
EFFFFFFFFF70
EFFFFFFFFF70
ENDCHAR
STARTCHAR 00F6
ENCODING 246
SWIDTH 1411 0
DWIDTH 48 0
BBX 44 31 1 0
BITMAP
E01C00000000
E01C00000000
E01C00000000
E01C00000000
000000000000
000000000000
000000000000
EFFFFFFFFF70
EFFFFFFFFF70
EFFFFFFFFF70
E00000000070
E00000000070
E00000000070
E00000000070
E00000000070
E00000000070
E00000000070
E00000000070
E00000000070
E00000000070
E00000000070
E00000000070
E00000000070
E00000000070
E00000000070
E00000000070
E00000000070
E00000000070
EFFFFFFFFF70
EFFFFFFFFF70
EFFFFFFFFF70
ENDCHAR
STARTCHAR 00F7
ENCODING 247
SWIDTH 588 0
DWIDTH 20 0
BBX 17 17 2 3
BITMAP
01C000
01C000
01C000
000000
000000
000000
FFFF80
FFFF80
FFFF80
000000
000000
000000
000000
000000
01C000
01C000
01C000
ENDCHAR
STARTCHAR 00F8
ENCODING 248
SWIDTH 1411 0
DWIDTH 48 0
BBX 44 24 2 0
BITMAP
EFFFFFFFFF70
EFFFFFFFFF70
EFFFFFFFFF70
E00000000070
E00000003870
E00000003870
E00000003870
E00000003870
E00000003870
E00000003870
E1FFFFFFF870
E1FFFFFFF870
E1FFFFFFF870
E1FFFFFFF870
E1C000000070
E1C000000070
E1C000000070
E1C000000070
E1C000000070
E1C000000070
E00000000070
EFFFFFFFFF70
EFFFFFFFFF70
EFFFFFFFFF70
ENDCHAR
STARTCHAR 00F9
ENCODING 249
SWIDTH 1294 0
DWIDTH 44 0
BBX 41 37 1 0
BITMAP
E00000000000
E00000000000
E00000000000
EEE000000000
EEE000000000
EEE000000000
00E000000000
00E000000000
00E000000000
00E000000000
000000000000
000000000000
000000000000
E00000000380
E00000000380
E00000000380
E00000000380
E00000000380
E00000000380
E00000000380
E00000000380
E00000000380
E00000000380
E00000000380
E00000000380
E00000000380
E00000000380
E00000000380
E00000000380
E00000000380
E00000000380
E00000000380
E00000000380
E00000000380
EFFFFFFFFB80
EFFFFFFFFB80
EFFFFFFFFB80
ENDCHAR
STARTCHAR 00FA
ENCODING 250
SWIDTH 1294 0
DWIDTH 44 0
BBX 41 37 1 0
BITMAP
00E000000000
00E000000000
00E000000000
00E000000000
EEE000000000
EEE000000000
E00000000000
E00000000000
E00000000000
E00000000000
000000000000
000000000000
000000000000
E00000000380
E00000000380
E00000000380
E00000000380
E00000000380
E00000000380
E00000000380
E00000000380
E00000000380
E00000000380
E00000000380
E00000000380
E00000000380
E00000000380
E00000000380
E00000000380
E00000000380
E00000000380
E00000000380
E00000000380
E00000000380
EFFFFFFFFB80
EFFFFFFFFB80
EFFFFFFFFB80
ENDCHAR
STARTCHAR 00FB
ENCODING 251
SWIDTH 1294 0
DWIDTH 44 0
BBX 41 34 1 0
BITMAP
0FDC00000000
0FDC00000000
0FDC00000000
EE1F80000000
EE1F80000000
EE1F80000000
EE1F80000000
000000000000
000000000000
000000000000
E00000000380
E00000000380
E00000000380
E00000000380
E00000000380
E00000000380
E00000000380
E00000000380
E00000000380
E00000000380
E00000000380
E00000000380
E00000000380
E00000000380
E00000000380
E00000000380
E00000000380
E00000000380
E00000000380
E00000000380
E00000000380
EFFFFFFFFB80
EFFFFFFFFB80
EFFFFFFFFB80
ENDCHAR
STARTCHAR 00FC
ENCODING 252
SWIDTH 1294 0
DWIDTH 44 0
BBX 41 31 1 0
BITMAP
E01C00000000
E01C00000000
E01C00000000
E01C00000000
000000000000
000000000000
000000000000
E00000000380
E00000000380
E00000000380
E00000000380
E00000000380
E00000000380
E00000000380
E00000000380
E00000000380
E00000000380
E00000000380
E00000000380
E00000000380
E00000000380
E00000000380
E00000000380
E00000000380
E00000000380
E00000000380
E00000000380
E00000000380
EFFFFFFFFB80
EFFFFFFFFB80
EFFFFFFFFB80
ENDCHAR
STARTCHAR 00FF
ENCODING 255
SWIDTH 1411 0
DWIDTH 48 0
BBX 44 41 1 -10
BITMAP
E01C00000000
E01C00000000
E01C00000000
E01C00000000
000000000000
000000000000
000000000000
E00000000070
E00000000070
E00000000070
E00000000070
E00000000070
E00000000070
E00000000070
E00000000070
E00000000070
E00000000070
E00000000070
E00000000070
E00000000070
E00000000070
E00000000070
E00000000070
E00000000070
E00000000070
E00000000070
E00000000070
E00000000070
EFFFFFFFFF70
EFFFFFFFFF70
EFFFFFFFFF70
000000000070
000000000070
000000000070
000000000070
000000000070
000000000070
000000000070
FFFFFFFFFF70
FFFFFFFFFF70
FFFFFFFFFF70
ENDCHAR
STARTCHAR 0131
ENCODING 305
SWIDTH 205 0
DWIDTH 7 0
BBX 30 24 2 0
BITMAP
FFFBFFFC
FFFBFFFC
FFFBFFFC
00038000
00038000
00038000
00038000
00038000
00038000
00038000
00038000
00038000
00038000
00038000
00038000
00038000
00038000
00038000
00038000
00038000
00038000
FFFBFFFC
FFFBFFFC
FFFBFFFC
ENDCHAR
STARTCHAR 0152
ENCODING 338
SWIDTH 1617 0
DWIDTH 55 0
BBX 51 24 2 0
BITMAP
EFFFFFCFFFFFE0
EFFFFFCFFFFFE0
EFFFFFCFFFFFE0
E000000E000000
E000000E000000
E000000E000000
E000000E000000
E000000E000000
E000000E000000
E000000E000000
E000000FFFFFE0
E000000FFFFFE0
E000000FFFFFE0
E000000E000000
E000000E000000
E000000E000000
E000000E000000
E000000E000000
E000000E000000
E000000E000000
E000000E000000
EFFFFFCFFFFFE0
EFFFFFCFFFFFE0
EFFFFFCFFFFFE0
ENDCHAR
STARTCHAR 0153
ENCODING 339
SWIDTH 1735 0
DWIDTH 59 0
BBX 56 24 2 0
BITMAP
EFFFFFCFFFFFE7
EFFFFFCFFFFFE7
EFFFFFCFFFFFE7
E000000E000007
E000000E000007
E000000E000007
E000000E000007
E000000E000007
E000000E000007
E000000E000007
E000000FFFFFE7
E000000FFFFFE7
E000000FFFFFE7
E000000E000000
E000000E000000
E000000E000000
E000000E000000
E000000E000000
E000000E000000
E000000E000000
E000000E000000
EFFFFFCFFFFFFF
EFFFFFCFFFFFFF
EFFFFFCFFFFFFF
ENDCHAR
STARTCHAR 0178
ENCODING 376
SWIDTH 1205 0
DWIDTH 41 0
BBX 37 31 1 0
BITMAP
E01C000000
E01C000000
E01C000000
E01C000000
0000000000
0000000000
0000000000
E000000038
E000000038
E000000038
E000000038
E000000038
E000000038
E000000038
E000000038
E000000038
E000000038
EFFF77FFB8
EFFF77FFB8
EFFF77FFB8
0000700000
0000700000
0000700000
0000700000
0000700000
0000700000
0000700000
0000700000
0000700000
0000700000
0000700000
ENDCHAR
STARTCHAR 0192
ENCODING 402
SWIDTH 794 0
DWIDTH 27 0
BBX 23 31 2 -7
BITMAP
003FFE
003FFE
003FFE
003800
003800
003800
003800
003800
003800
003800
003800
003800
003800
003800
003800
003800
003800
003800
003800
003800
003800
003800
003800
003800
003800
003800
003800
003800
FFF800
FFF800
FFF800
ENDCHAR
STARTCHAR 02C6
ENCODING 710
SWIDTH 588 0
DWIDTH 20 0
BBX 17 7 2 17
BITMAP
0FDC00
0FDC00
0FDC00
EE1F80
EE1F80
EE1F80
EE1F80
ENDCHAR
STARTCHAR 02C7
ENCODING 711
SWIDTH 588 0
DWIDTH 20 0
BBX 17 7 2 17
BITMAP
EE1F80
EE1F80
EE1F80
0FDC00
0FDC00
0FDC00
0FDC00
ENDCHAR
STARTCHAR 02C9
ENCODING 713
SWIDTH 500 0
DWIDTH 17 0
BBX 13 4 2 20
BITMAP
FFF8
FFF8
FFF8
FFF8
ENDCHAR
STARTCHAR 02D8
ENCODING 728
SWIDTH 588 0
DWIDTH 20 0
BBX 17 7 2 17
BITMAP
EE1F80
EE1F80
EE1F80
0FDC00
0FDC00
0FDC00
0FDC00
ENDCHAR
STARTCHAR 02D9
ENCODING 729
SWIDTH 1000 0
DWIDTH 34 0
BBX 3 4 2 20
BITMAP
E0
E0
E0
E0
ENDCHAR
STARTCHAR 02DA
ENCODING 730
SWIDTH 500 0
DWIDTH 17 0
BBX 15 11 2 20
BITMAP
EFEE
EFEE
EFEE
E00E
E00E
E00E
E00E
EFEE
EFEE
EFEE
EFEE
ENDCHAR
STARTCHAR 02DB
ENCODING 731
SWIDTH 411 0
DWIDTH 14 0
BBX 11 14 2 -14
BITMAP
00E0
00E0
00E0
EEE0
EEE0
EEE0
E000
E000
E000
E000
E000
EFE0
EFE0
EFE0
ENDCHAR
STARTCHAR 02DC
ENCODING 732
SWIDTH 588 0
DWIDTH 20 0
BBX 17 7 2 17
BITMAP
FDC380
FDC380
FDC380
E1FB80
E1FB80
E1FB80
E1FB80
ENDCHAR
STARTCHAR 02DD
ENCODING 733
SWIDTH 411 0
DWIDTH 14 0
BBX 26 10 2 24
BITMAP
007001C0
007001C0
007001C0
007001C0
E773B9C0
E773B9C0
E0038000
E0038000
E0038000
E0038000
ENDCHAR
STARTCHAR 0394
ENCODING 916
SWIDTH 117 0
DWIDTH 4 0
BBX 0 0 0 0
BITMAP
ENDCHAR
STARTCHAR 03A9
ENCODING 937
SWIDTH 1411 0
DWIDTH 48 0
BBX 44 34 2 -10
BITMAP
E00000003870
E00000003870
E00000003870
E00000003870
E00000003870
E00000003870
E00000003870
E00000003870
E00000003870
E00000003870
E00000003870
E00000003870
E00000003870
E00000003870
E00000003870
E00000003870
E00000003870
E00000003870
E00000003870
E00000003870
E00000003870
FFFFFFFFF870
FFFFFFFFF870
FFFFFFFFF870
000000000070
000000000070
000000000070
000000000070
000000000070
000000000070
000000000070
FFFFFFFFFFF0
FFFFFFFFFFF0
FFFFFFFFFFF0
ENDCHAR
STARTCHAR 03BC
ENCODING 956
SWIDTH 1411 0
DWIDTH 48 0
BBX 44 34 2 -10
BITMAP
E00000000070
E00000000070
E00000000070
E00000000070
E00000000070
E00000000070
E00000000070
E00000000070
E00000000070
E00000000070
E00000000070
E00000000070
E00000000070
E00000000070
E00000000070
E00000000070
E00000000070
E00000000070
E00000000070
E00000000070
E00000000070
EFFFFFFFFF70
EFFFFFFFFF70
EFFFFFFFFF70
E00000000070
E00000000070
E00000000070
E00000000000
E00000000000
E00000000000
E00000000000
E00000000000
E00000000000
E00000000000
ENDCHAR
STARTCHAR 03C0
ENCODING 960
SWIDTH 32764 0
DWIDTH 1114 0
BBX 0 0 0 0
BITMAP
ENDCHAR
STARTCHAR 2010
ENCODING 8208
SWIDTH 411 0
DWIDTH 14 0
BBX 10 4 2 10
BITMAP
FFC0
FFC0
FFC0
FFC0
ENDCHAR
STARTCHAR 2013
ENCODING 8211
SWIDTH 911 0
DWIDTH 31 0
BBX 27 4 2 10
BITMAP
FFFFFFE0
FFFFFFE0
FFFFFFE0
FFFFFFE0
ENDCHAR
STARTCHAR 2014
ENCODING 8212
SWIDTH 1294 0
DWIDTH 44 0
BBX 41 4 2 10
BITMAP
FFFFFFFFFF80
FFFFFFFFFF80
FFFFFFFFFF80
FFFFFFFFFF80
ENDCHAR
STARTCHAR 2018
ENCODING 8216
SWIDTH 411 0
DWIDTH 14 0
BBX 9 10 3 27
BITMAP
0380
0380
0380
0380
FF80
FF80
E000
E000
E000
E000
ENDCHAR
STARTCHAR 2019
ENCODING 8217
SWIDTH 411 0
DWIDTH 14 0
BBX 9 10 3 27
BITMAP
E000
E000
E000
FF80
FF80
FF80
0380
0380
0380
0380
ENDCHAR
STARTCHAR 201A
ENCODING 8218
SWIDTH 205 0
DWIDTH 7 0
BBX 3 6 2 -3
BITMAP
E0
E0
E0
E0
E0
E0
ENDCHAR
STARTCHAR 201C
ENCODING 8220
SWIDTH 794 0
DWIDTH 27 0
BBX 24 10 2 27
BITMAP
01C007
01C007
01C007
01C007
FFC1FF
FFC1FF
F001C0
F001C0
F001C0
F001C0
ENDCHAR
STARTCHAR 201D
ENCODING 8221
SWIDTH 794 0
DWIDTH 27 0
BBX 24 10 2 27
BITMAP
F001C0
F001C0
F001C0
FFC1FF
FFC1FF
FFC1FF
01C007
01C007
01C007
01C007
ENDCHAR
STARTCHAR 201E
ENCODING 8222
SWIDTH 411 0
DWIDTH 14 0
BBX 10 6 2 -3
BITMAP
E1C0
E1C0
E1C0
E1C0
E1C0
E1C0
ENDCHAR
STARTCHAR 2020
ENCODING 8224
SWIDTH 588 0
DWIDTH 20 0
BBX 17 24 2 0
BITMAP
01C000
01C000
01C000
01C000
01C000
01C000
01C000
FFFF80
FFFF80
FFFF80
01C000
01C000
01C000
01C000
01C000
01C000
01C000
01C000
01C000
01C000
01C000
01C000
01C000
01C000
ENDCHAR
STARTCHAR 2021
ENCODING 8225
SWIDTH 588 0
DWIDTH 20 0
BBX 17 24 2 0
BITMAP
01C000
01C000
01C000
01C000
01C000
01C000
01C000
FFFF80
FFFF80
FFFF80
01C000
01C000
01C000
01C000
FFFF80
FFFF80
FFFF80
01C000
01C000
01C000
01C000
01C000
01C000
01C000
ENDCHAR
STARTCHAR 2022
ENCODING 8226
SWIDTH 294 0
DWIDTH 10 0
BBX 7 7 2 10
BITMAP
FE
FE
FE
FE
FE
FE
FE
ENDCHAR
STARTCHAR 2026
ENCODING 8230
SWIDTH 588 0
DWIDTH 20 0
BBX 17 3 2 0
BITMAP
E1C380
E1C380
E1C380
ENDCHAR
STARTCHAR 2030
ENCODING 8240
SWIDTH 1705 0
DWIDTH 58 0
BBX 54 24 2 0
BITMAP
FFFC0000380000
FFFC0000380000
FFFC0000380000
E01C0000380000
E01C0000380000
E01C0000380000
E01C0000380000
FFFC7FFFF80000
FFFC7FFFF80000
FFFC7FFFF80000
00007000000000
00007000000000
00007000000000
00007000000000
FFFFF0FFF87FFC
FFFFF0FFF87FFC
FFFFF0FFF87FFC
E00000E038701C
E00000E038701C
E00000E038701C
E00000E038701C
E00000FFF87FFC
E00000FFF87FFC
E00000FFF87FFC
ENDCHAR
STARTCHAR 2039
ENCODING 8249
SWIDTH 411 0
DWIDTH 14 0
BBX 10 17 2 3
BITMAP
01C0
01C0
01C0
FFC0
FFC0
FFC0
E000
E000
E000
E000
FFC0
FFC0
FFC0
01C0
01C0
01C0
01C0
ENDCHAR
STARTCHAR 203A
ENCODING 8250
SWIDTH 411 0
DWIDTH 14 0
BBX 10 17 2 3
BITMAP
E000
E000
E000
FFC0
FFC0
FFC0
01C0
01C0
01C0
01C0
01C0
FFC0
FFC0
FFC0
E000
E000
E000
ENDCHAR
STARTCHAR 2044
ENCODING 8260
SWIDTH 1000 0
DWIDTH 34 0
BBX 31 24 2 0
BITMAP
0000000E
0000000E
0000000E
0000000E
0000000E
0000000E
0000000E
0000000E
0000000E
0000000E
EFFFFFCE
EFFFFFCE
EFFFFFCE
E0000000
E0000000
E0000000
E0000000
E0000000
E0000000
E0000000
E0000000
E0000000
E0000000
E0000000
ENDCHAR
STARTCHAR 2122
ENCODING 8482
SWIDTH 1411 0
DWIDTH 48 0
BBX 44 14 2 10
BITMAP
FDDF877DDF70
FDDF877DDF70
FDDF877DDF70
01C00701C070
01C00701C070
01C00701C070
01C00701C070
01C00701C070
01C00701C070
01C00701C070
01C00701C070
01C00701C070
01C00701C070
01C00701C070
ENDCHAR
STARTCHAR 2126
ENCODING 8486
SWIDTH 1411 0
DWIDTH 48 0
BBX 44 34 2 -10
BITMAP
E00000003870
E00000003870
E00000003870
E00000003870
E00000003870
E00000003870
E00000003870
E00000003870
E00000003870
E00000003870
E00000003870
E00000003870
E00000003870
E00000003870
E00000003870
E00000003870
E00000003870
E00000003870
E00000003870
E00000003870
E00000003870
FFFFFFFFF870
FFFFFFFFF870
FFFFFFFFF870
000000000070
000000000070
000000000070
000000000070
000000000070
000000000070
000000000070
FFFFFFFFFFF0
FFFFFFFFFFF0
FFFFFFFFFFF0
ENDCHAR
STARTCHAR 2202
ENCODING 8706
SWIDTH 1411 0
DWIDTH 48 0
BBX 44 31 2 0
BITMAP
000000000070
000000000070
000000000070
000000000070
000000000070
000000000070
000000000070
EFFFFFFFFF70
EFFFFFFFFF70
EFFFFFFFFF70
E00000000070
E00000000070
E00000000070
E00000000070
E00000000070
E00000000070
E00000000070
E00000000070
E00000000070
E00000000070
E00000000070
E00000000070
E00000000070
E00000000070
E00000000070
E00000000070
E00000000070
E00000000070
EFFFFFFFFF70
EFFFFFFFFF70
EFFFFFFFFF70
ENDCHAR
STARTCHAR 2206
ENCODING 8710
SWIDTH 117 0
DWIDTH 4 0
BBX 0 0 0 0
BITMAP
ENDCHAR
STARTCHAR 220F
ENCODING 8719
SWIDTH 117 0
DWIDTH 4 0
BBX 0 0 0 0
BITMAP
ENDCHAR
STARTCHAR 2211
ENCODING 8721
SWIDTH 1294 0
DWIDTH 44 0
BBX 41 24 2 0
BITMAP
EFFFFFFFFF80
EFFFFFFFFF80
EFFFFFFFFF80
E00000000000
E00000000000
E00000000000
E00000000000
FFC000000000
FFC000000000
FFC000000000
01DFFFFFFF80
01DFFFFFFF80
01DFFFFFFF80
FFC000000000
FFC000000000
FFC000000000
E00000000000
E00000000000
E00000000000
E00000000000
E00000000000
EFFFFFFFFF80
EFFFFFFFFF80
EFFFFFFFFF80
ENDCHAR
STARTCHAR 2219
ENCODING 8729
SWIDTH 205 0
DWIDTH 7 0
BBX 3 4 2 10
BITMAP
E0
E0
E0
E0
ENDCHAR
STARTCHAR 221A
ENCODING 8730
SWIDTH 1411 0
DWIDTH 48 0
BBX 44 24 2 0
BITMAP
EFFFFFFFFF70
EFFFFFFFFF70
EFFFFFFFFF70
E00000000070
E00000000070
E00000000070
E00000000070
E00000000070
E00000000070
E00000000070
E1DFFFFFFF70
E1DFFFFFFF70
E1DFFFFFFF70
E1C000000000
E1C000000000
E1C000000000
E1C000000000
E1C000000000
E1C000000000
E1C000000000
E1C000000000
E1DFFFFFFFF0
E1DFFFFFFFF0
E1DFFFFFFFF0
ENDCHAR
STARTCHAR 221E
ENCODING 8734
SWIDTH 941 0
DWIDTH 32 0
BBX 28 10 2 14
BITMAP
FFFDFFF0
FFFDFFF0
FFFDFFF0
E01DC070
E01DC070
E01DC070
E01DC070
FFFDFFF0
FFFDFFF0
FFFDFFF0
ENDCHAR
STARTCHAR 222B
ENCODING 8747
SWIDTH 794 0
DWIDTH 27 0
BBX 23 31 2 -7
BITMAP
003FFE
003FFE
003FFE
003800
003800
003800
003800
003800
003800
003800
003800
003800
003800
003800
003800
003800
003800
003800
003800
003800
003800
003800
003800
003800
003800
003800
003800
003800
FFF800
FFF800
FFF800
ENDCHAR
STARTCHAR 2248
ENCODING 8776
SWIDTH 117 0
DWIDTH 4 0
BBX 0 0 0 0
BITMAP
ENDCHAR
STARTCHAR 2260
ENCODING 8800
SWIDTH 588 0
DWIDTH 20 0
BBX 17 17 2 3
BITMAP
001C00
001C00
001C00
FFFF80
FFFF80
FFFF80
000000
00E000
00E000
00E000
FFFF80
FFFF80
FFFF80
000000
070000
070000
070000
ENDCHAR
STARTCHAR 2264
ENCODING 8804
SWIDTH 411 0
DWIDTH 14 0
BBX 10 22 2 0
BITMAP
01C0
01C0
01C0
FDC0
FDC0
FDC0
E000
E000
E000
E000
FDC0
FDC0
FDC0
01C0
01C0
01C0
0000
0000
0000
FFC0
FFC0
FFC0
ENDCHAR
STARTCHAR 2265
ENCODING 8805
SWIDTH 411 0
DWIDTH 14 0
BBX 10 22 2 0
BITMAP
E000
E000
E000
EFC0
EFC0
EFC0
01C0
01C0
01C0
01C0
EFC0
EFC0
EFC0
E000
E000
E000
0000
0000
0000
FFC0
FFC0
FFC0
ENDCHAR
STARTCHAR 22F2
ENCODING 8946
SWIDTH 117 0
DWIDTH 4 0
BBX 0 0 0 0
BITMAP
ENDCHAR
STARTCHAR 25CA
ENCODING 9674
SWIDTH 1500 0
DWIDTH 51 0
BBX 48 24 2 0
BITMAP
FFFFF00FFFFF
FFFFF00FFFFF
FFFFF00FFFFF
E000700E0007
E000700E0007
E000700E0007
E000700E0007
E000700E0007
E000700E0007
E000700E0007
E000700E0007
E000700E0007
E000700E0007
E000700E0007
E000700E0007
E000700E0007
E000700E0007
E000700E0007
E000700E0007
E000700E0007
E000700E0007
E0007FFE0007
E0007FFE0007
E0007FFE0007
ENDCHAR
STARTCHAR F000
ENCODING 61440
SWIDTH 794 0
DWIDTH 27 0
BBX 23 26 2 0
BITMAP
800002
C00006
60000C
F0001E
78003C
BC707A
FE7CFC
7E7CFC
BF3DFA
7F3DFC
3F9FFA
7F3DFC
7F7DFC
1FFFF0
3FFFF8
1FFFF0
0FFDE0
007C00
01FF00
00FE00
0F39E0
1E7CF0
0BB9A0
001C00
002C00
000800
ENDCHAR
STARTCHAR F001
ENCODING 61441
SWIDTH 1411 0
DWIDTH 48 0
BBX 44 24 2 0
BITMAP
1FFFFFFFFF80
1FFFFFFFFF80
1FFFFFFFFF80
FE00000007F0
FE00000007F0
FE00000007F0
E00000000070
E00000000070
E00000000070
E00000000070
E00000000070
E00000000070
E00000000070
E00000000070
FFFFFFFFFFF0
FFFFFFFFFFF0
FFFFFFFFFFF0
E00000000070
E00000000070
E00000000070
E00000000070
E00000000070
E00000000070
E00000000070
ENDCHAR
STARTCHAR F002
ENCODING 61442
SWIDTH 1411 0
DWIDTH 48 0
BBX 44 24 2 0
BITMAP
1FFFFFFFFF80
1FFFFFFFFF80
1FFFFFFFFF80
FE00000007F0
FE00000007F0
FE00000007F0
E00000000070
E00000000070
E00000000070
E00000000070
E00000000070
E00000000070
E00000000070
E00000000070
E00000000070
E00000000070
E00000000070
E00000000070
FE00000007F0
FE00000007F0
FE00000007F0
1FFFFFFFFF80
1FFFFFFFFF80
1FFFFFFFFF80
ENDCHAR
ENDFONT
